<?xml version="1.0" standalone="no"?><!DOCTYPE svg PUBLIC "-//W3C//DTD SVG 1.1//EN" "http://www.w3.org/Graphics/SVG/1.1/DTD/svg11.dtd" ><svg xmlns="http://www.w3.org/2000/svg"><metadata></metadata><defs><font id="Linotype Library GmbH: Futura LT Bold: 2002" horiz-adv-x="1117"><font-face font-family="Futura LT Book" font-weight="700" font-stretch="normal" units-per-em="1000" panose-1="2 0 8 3 4 0 0 2 0 3" ascent="1040" descent="-264" x-height="3" bbox="-19 -256 1132 874" underline-thickness="50" underline-position="-100" unicode-range="U+0021-007e" /><missing-glyph horiz-adv-x="500" d="M442 8 l0 496 l-384 0 l0 -496 l384 0 ZM50 512 l400 0 l0 -512 l-400 0 l0 512 Z" /><glyph glyph-name="exclam" unicode="!" d="M98 754 l189 0 l0 -498 l-189 0 l0 498 ZM192 214 q24 0 45.5 -9 q21.5 -9 37.5 -25 q16 -16 25 -37.5 q9 -21.5 9 -45.5 q0 -24 -9 -45.5 q-9 -21.5 -25 -37 q-16 -15.5 -37.5 -25 q-21.5 -9.5 -45.5 -9.5 q-24 0 -45.5 9.5 q-21.5 9.5 -37.5 25 q-16 15.5 -25 37 q-9 21.5 -9 45.5 q0 24 9 45.5 q9 21.5 25 37.5 q16 16 37.5 25 q21.5 9 45.5 9 Z" /><glyph glyph-name="quotedbl" unicode="&quot;" d="M453 754 l-27 -331 l-116 0 l-27 331 l170 0 ZM217 754 l-27 -331 l-116 0 l-27 331 l170 0 Z" /><glyph glyph-name="numbersign" unicode="#" d="M287 286 l102 0 l26 124 l-104 0 l-24 -124 ZM371 726 l-39 -203 l101 0 l39 203 l105 0 l-39 -203 l80 0 l0 -113 l-98 0 l-24 -124 l94 0 l0 -113 l-118 0 l-33 -173 l-106 0 l33 173 l-101 0 l-33 -173 l-106 0 l33 173 l-91 0 l0 113 l113 0 l24 124 l-96 0 l0 113 l117 0 l39 203 l106 0 Z" /><glyph glyph-name="dollar" unicode="$" d="M150 238 q17 -16 38.5 -31 q21.5 -15 45 -27 q23.5 -12 48.5 -19 q25 -7 49 -7 q16 0 32.5 4.5 q16.5 4.5 30 13.5 q13.5 9 22.5 23 q9 14 9 32 q0 21 -13.5 34.5 q-13.5 13.5 -35.5 23 q-22 9.5 -50 18 q-28 8.5 -58 19.5 q-29 11 -57.5 26 q-28.5 15 -50.5 37.5 q-22 22.5 -35.5 54.5 q-13.5 32 -13.5 78 q0 44 14.5 85 q14.5 41 41.5 73.5 q27 32.5 64.5 53 q37.5 20.5 83.5 23.5 l0 121 l93 0 l0 -121 q48 -5 94.5 -18.5 q46.5 -13.5 87.5 -39.5 l-74 -145 q-27 22 -60 35.5 q-33 13.5 -68 13.5 q-33 0 -59 -13 q-26 -13 -26 -43 q0 -17 10.5 -30 q10.5 -13 25.5 -22 q15 -9 32 -15.5 q17 -6.5 30 -10.5 q43 -14 82 -30.5 q39 -16.5 69 -41 q30 -24.5 48 -60 q18 -35.5 18 -87.5 q0 -53 -14.5 -93 q-14.5 -40 -41.5 -69.5 q-27 -29.5 -66 -49.5 q-39 -20 -88 -32 l0 -125 l-93 0 l0 119 q-33 0 -65 6.5 q-32 6.5 -64 18.5 q-32 12 -62.5 27.5 q-30.5 15.5 -55.5 38.5 l82 151 Z" /><glyph glyph-name="percent" unicode="%" d="M750 259 q-35 0 -60 -25 q-25 -25 -25 -60 q0 -35 25 -59.5 q25 -24.5 60 -24.5 q35 0 60 24.5 q25 24.5 25 59.5 q0 35 -25 60 q-25 25 -60 25 ZM750 359 q42 0 79.5 -11.5 q37.5 -11.5 65.5 -35 q28 -23.5 44.5 -57.5 q16.5 -34 16.5 -79 q0 -46 -16 -80.5 q-16 -34.5 -44 -58 q-28 -23.5 -65.5 -35.5 q-37.5 -12 -80.5 -12 q-43 0 -80.5 12 q-37.5 12 -65.5 35.5 q-28 23.5 -44 58 q-16 34.5 -16 80.5 q0 45 16.5 79 q16.5 34 44.5 57.5 q28 23.5 65.5 35 q37.5 11.5 79.5 11.5 ZM755 754 l-438 -754 l-98 0 l438 754 l98 0 ZM225 664 q-35 0 -60 -25 q-25 -25 -25 -60 q0 -35 25 -59.5 q25 -24.5 60 -24.5 q35 0 60 24.5 q25 24.5 25 59.5 q0 35 -25 60 q-25 25 -60 25 ZM225 764 q42 0 79.5 -11.5 q37.5 -11.5 65.5 -35 q28 -23.5 44.5 -57.5 q16.5 -34 16.5 -79 q0 -46 -16 -80.5 q-16 -34.5 -44 -58 q-28 -23.5 -65.5 -35.5 q-37.5 -12 -80.5 -12 q-43 0 -80.5 12 q-37.5 12 -65.5 35.5 q-28 23.5 -44 58 q-16 34.5 -16 80.5 q0 45 16.5 79 q16.5 34 44.5 57.5 q28 23.5 65.5 35 q37.5 11.5 79.5 11.5 Z" /><glyph glyph-name="ampersand" unicode="&amp;" d="M538 70 q-57 -38 -123 -64 q-66 -26 -135 -26 q-49 0 -93 14.5 q-44 14.5 -77 42 q-33 27.5 -52.5 67.5 q-19.5 40 -19.5 92 q0 42 12 74.5 q12 32.5 33.5 57 q21.5 24.5 51 43.5 q29.5 19 65.5 35 l18 8 l-16 22 q-9 12 -18.5 25.5 q-9.5 13.5 -17.5 29 q-8 15.5 -13 34.5 q-5 19 -5 42 q0 49 19.5 87.5 q19.5 38.5 52 65 q32.5 26.5 75 40.5 q42.5 14 87.5 14 q45 0 87.5 -14 q42.5 -14 75.5 -40 q33 -26 53 -64.5 q20 -38.5 20 -86.5 q0 -35 -11 -62.5 q-11 -27.5 -30 -49 q-19 -21.5 -44.5 -38 q-25.5 -16.5 -54.5 -31.5 l95 -100 q28 25 53 51 q25 26 46 56 l111 -106 l-95 -102 l-9 -9 l169 -178 l-245 0 l-65 70 ZM393 479 q26 14 48 37.5 q22 23.5 22 54.5 q0 29 -18 49.5 q-18 20.5 -48 20.5 q-26 0 -44.5 -17 q-18.5 -17 -18.5 -45 q0 -14 6 -27.5 q6 -13.5 14.5 -26.5 q8.5 -13 19 -24.5 q10.5 -11.5 19.5 -21.5 ZM312 315 q-12 -8 -24.5 -17 q-12.5 -9 -23 -20 q-10.5 -11 -17 -24 q-6.5 -13 -6.5 -29 q0 -17 7.5 -30 q7.5 -13 20 -21.5 q12.5 -8.5 27.5 -13 q15 -4.5 30 -4.5 q28 0 55 8.5 q27 8.5 50 22.5 l-119 128 Z" /><glyph glyph-name="quotesingle" unicode="&#39;" d="M210 754 l-27 -331 l-116 0 l-27 331 l170 0 Z" /><glyph glyph-name="parenleft" unicode="(" d="M303 728 q-31 -50 -52.5 -105 q-21.5 -55 -35.5 -113.5 q-14 -58.5 -20.5 -118 q-6.5 -59.5 -6.5 -117.5 q0 -54 6.5 -114 q6.5 -60 21 -120 q14.5 -60 36 -116.5 q21.5 -56.5 51.5 -101.5 l-109 -62 q-39 51 -67 116 q-28 65 -45 135 q-17 70 -25 141 q-8 71 -8 134 q0 62 9 129.5 q9 67.5 27 134 q18 66.5 45 128 q27 61.5 64 112.5 l109 -62 Z" /><glyph glyph-name="parenright" unicode=")" d="M158 790 q37 -51 64 -112.5 q27 -61.5 45 -128 q18 -66.5 27 -134 q9 -67.5 9 -129.5 q0 -63 -8 -134 q-8 -71 -25 -141 q-17 -70 -45 -135 q-28 -65 -67 -116 l-109 62 q30 45 51.5 101.5 q21.5 56.5 36 116.5 q14.5 60 21 120 q6.5 60 6.5 114 q0 58 -6.5 117.5 q-6.5 59.5 -20.5 118 q-14 58.5 -35.5 113.5 q-21.5 55 -52.5 105 l109 62 Z" /><glyph glyph-name="asterisk" unicode="*" d="M286 754 l-5 -107 l89 56 l45 -76 l-95 -50 l94 -52 l-45 -75 l-88 57 l4 -101 l-90 0 l6 100 l-85 -54 l-45 76 l90 50 l-93 51 l46 76 l87 -55 l-5 104 l90 0 Z" /><glyph glyph-name="plus" unicode="+" d="M268 513 l150 0 l0 -181 l181 0 l0 -150 l-181 0 l0 -182 l-150 0 l0 182 l-181 0 l0 150 l181 0 l0 181 Z" /><glyph glyph-name="comma" unicode="," d="M323 191 l-184 -332 l-117 0 l130 332 l171 0 Z" /><glyph glyph-name="hyphen" unicode="-" d="M339 396 l0 -150 l-286 0 l0 150 l286 0 Z" /><glyph glyph-name="period" unicode="." d="M172 214 q24 0 45.5 -9 q21.5 -9 37.5 -25 q16 -16 25 -37.5 q9 -21.5 9 -45.5 q0 -24 -9 -45.5 q-9 -21.5 -25 -37 q-16 -15.5 -37.5 -25 q-21.5 -9.5 -45.5 -9.5 q-24 0 -45.5 9.5 q-21.5 9.5 -37.5 25 q-16 15.5 -25 37 q-9 21.5 -9 45.5 q0 24 9 45.5 q9 21.5 25 37.5 q16 16 37.5 25 q21.5 9 45.5 9 Z" /><glyph glyph-name="slash" unicode="/" d="M552 830 l-382 -923 l-143 0 l382 923 l143 0 Z" /><glyph glyph-name="zero" unicode="0" d="M343 611 q-38 0 -62 -26 q-24 -26 -38 -63 q-14 -37 -19.5 -77 q-5.5 -40 -5.5 -67 q0 -27 5.5 -67.5 q5.5 -40.5 19.5 -77.5 q14 -37 38 -63.5 q24 -26.5 62 -26.5 q38 0 62 26.5 q24 26.5 38 63.5 q14 37 19.5 77.5 q5.5 40.5 5.5 67.5 q0 27 -5.5 67 q-5.5 40 -19.5 77 q-14 37 -38 63 q-24 26 -62 26 ZM343 784 q84 0 144.5 -36 q60.5 -36 99.5 -94 q39 -58 57.5 -131 q18.5 -73 18.5 -146 q0 -74 -18.5 -146.5 q-18.5 -72.5 -57.5 -130.5 q-39 -58 -99.5 -94 q-60.5 -36 -144.5 -36 q-84 0 -144.5 36 q-60.5 36 -99.5 94 q-39 58 -57.5 130.5 q-18.5 72.5 -18.5 146.5 q0 73 18.5 146 q18.5 73 57.5 131 q39 58 99.5 94 q60.5 36 144.5 36 Z" /><glyph glyph-name="one" unicode="1" d="M161 588 l0 166 l304 0 l0 -754 l-196 0 l0 588 l-108 0 Z" /><glyph glyph-name="two" unicode="2" d="M639 166 l0 -166 l-606 0 l308 335 q33 36 59.5 84.5 q26.5 48.5 26.5 100.5 q0 18 -6 35.5 q-6 17.5 -17.5 31.5 q-11.5 14 -27.5 22.5 q-16 8.5 -35 8.5 q-40 0 -61 -27 q-21 -27 -21 -65 q0 -16 3 -32 l-216 0 q2 65 23.5 118.5 q21.5 53.5 59 91.5 q37.5 38 91 59 q53.5 21 120.5 21 q59 0 112 -19 q53 -19 92.5 -53.5 q39.5 -34.5 63 -84.5 q23.5 -50 23.5 -111 q0 -41 -8 -73.5 q-8 -32.5 -24 -61 q-16 -28.5 -38.5 -54.5 q-22.5 -26 -51.5 -52 l-117 -109 l247 0 Z" /><glyph glyph-name="three" unicode="3" d="M73 537 q6 60 29 105 q23 45 59 77 q36 32 85 48.5 q49 16.5 107 16.5 q51 0 95 -14.5 q44 -14.5 76.5 -42 q32.5 -27.5 51 -68.5 q18.5 -41 18.5 -94 q0 -45 -19 -88.5 q-19 -43.5 -60 -66.5 q30 -8 53 -28 q23 -20 38.5 -46 q15.5 -26 23.5 -56.5 q8 -30.5 8 -59.5 q0 -62 -24.5 -108.5 q-24.5 -46.5 -65.5 -78 q-41 -31.5 -94 -47.5 q-53 -16 -109 -16 q-65 0 -122 19 q-57 19 -103 66 q-17 17 -33 39.5 q-16 22.5 -28 48 q-12 25.5 -19 51.5 q-7 26 -6 51 l200 0 q0 -45 29 -76 q29 -31 76 -31 q45 0 75 27.5 q30 27.5 30 73.5 q0 21 -8.5 39.5 q-8.5 18.5 -23 32 q-14.5 13.5 -33 21.5 q-18.5 8 -39.5 8 q-9 0 -17.5 -2 q-8.5 -2 -16.5 -4 l0 131 l20 0 q38 0 62 22 q24 22 24 61 q0 35 -22 55.5 q-22 20.5 -55 20.5 q-38 0 -59.5 -25 q-21.5 -25 -20.5 -62 l-182 0 Z" /><glyph glyph-name="four" unicode="4" d="M382 596 l-2 0 l-176 -290 l178 0 l0 290 ZM655 306 l0 -150 l-91 0 l0 -156 l-182 0 l0 156 l-366 0 l0 125 l291 473 l257 0 l0 -448 l91 0 Z" /><glyph glyph-name="five" unicode="5" d="M304 588 l-13 -86 l62 5 q58 4 107 -15.5 q49 -19.5 84.5 -56.5 q35.5 -37 55.5 -88.5 q20 -51.5 20 -109.5 q0 -60 -25 -113 q-25 -53 -72 -91 q-45 -36 -104 -49.5 q-59 -13.5 -116 -13.5 q-65 0 -128 16.5 q-63 16.5 -118 51.5 l29 185 q44 -39 97.5 -63 q53.5 -24 112.5 -24 q23 0 45 8 q22 8 38.5 22.5 q16.5 14.5 26.5 35 q10 20.5 10 45.5 q0 34 -15 58.5 q-15 24.5 -38.5 40 q-23.5 15.5 -53 23 q-29.5 7.5 -58.5 7.5 q-38 0 -74 -7.5 q-36 -7.5 -70 -23.5 l66 409 l392 0 l0 -166 l-261 0 Z" /><glyph glyph-name="six" unicode="6" d="M338 124 q26 0 48 10 q22 10 38.5 27 q16.5 17 25.5 39.5 q9 22.5 9 48.5 q0 25 -9 47.5 q-9 22.5 -25.5 39.5 q-16.5 17 -38.5 26.5 q-22 9.5 -48 9.5 q-26 0 -48.5 -9.5 q-22.5 -9.5 -39 -26.5 q-16.5 -17 -26.5 -39.5 q-10 -22.5 -10 -47.5 q0 -26 10 -48.5 q10 -22.5 26.5 -39.5 q16.5 -17 39 -27 q22.5 -10 48.5 -10 ZM528 754 l-214 -255 l2 -2 q26 11 51 17 q25 6 54 6 q55 0 100 -22 q45 -22 76.5 -59 q31.5 -37 48.5 -84.5 q17 -47.5 17 -99.5 q0 -69 -26.5 -122.5 q-26.5 -53.5 -71 -89.5 q-44.5 -36 -103.5 -54.5 q-59 -18.5 -123 -18.5 q-55 0 -113 15 q-58 15 -102 50 q-45 38 -73 93 q-28 55 -28 114 q0 41 10 81 q10 40 26.5 78 q16.5 38 38.5 73.5 q22 35.5 46 67.5 l162 212 l222 0 Z" /><glyph glyph-name="seven" unicode="7" d="M71 588 l0 166 l619 0 l-433 -754 l-215 0 l344 588 l-315 0 Z" /><glyph glyph-name="eight" unicode="8" d="M343 784 q48 0 94.5 -13.5 q46.5 -13.5 82.5 -40 q36 -26.5 58 -67 q22 -40.5 22 -94.5 q0 -30 -9 -57 q-9 -27 -24.5 -49.5 q-15.5 -22.5 -37.5 -39 q-22 -16.5 -48 -25.5 l0 -2 q68 -23 109 -73 q41 -50 41 -125 q0 -59 -26.5 -101.5 q-26.5 -42.5 -68.5 -71 q-42 -28.5 -93 -42 q-51 -13.5 -100 -13.5 q-49 0 -100 13.5 q-51 13.5 -93 42 q-42 28.5 -68.5 71 q-26.5 42.5 -26.5 101.5 q0 75 41 125 q41 50 109 73 l0 2 q-26 9 -48 25.5 q-22 16.5 -37.5 39 q-15.5 22.5 -24.5 49.5 q-9 27 -9 57 q0 54 22 94.5 q22 40.5 58 67 q36 26.5 82.5 40 q46.5 13.5 94.5 13.5 ZM343 317 q-19 0 -35.5 -7.5 q-16.5 -7.5 -28.5 -20 q-12 -12.5 -19 -30 q-7 -17.5 -7 -36.5 q0 -19 7 -36 q7 -17 19 -29.5 q12 -12.5 28.5 -19.5 q16.5 -7 35.5 -7 q19 0 35.5 7 q16.5 7 28.5 19.5 q12 12.5 19 29.5 q7 17 7 36 q0 19 -7 36.5 q-7 17.5 -19 30 q-12 12.5 -28.5 20 q-16.5 7.5 -35.5 7.5 ZM343 648 q-17 0 -32.5 -6.5 q-15.5 -6.5 -26.5 -18 q-11 -11.5 -17.5 -27 q-6.5 -15.5 -6.5 -33.5 q0 -18 6.5 -33.5 q6.5 -15.5 17.5 -27 q11 -11.5 26.5 -18 q15.5 -6.5 32.5 -6.5 q17 0 32 6.5 q15 6.5 26.5 18 q11.5 11.5 18 27 q6.5 15.5 6.5 33.5 q0 18 -6.5 33.5 q-6.5 15.5 -18 27 q-11.5 11.5 -26.5 18 q-15 6.5 -32 6.5 Z" /><glyph glyph-name="nine" unicode="9" d="M348 629 q-26 0 -48 -9.5 q-22 -9.5 -38.5 -26.5 q-16.5 -17 -25.5 -39.5 q-9 -22.5 -9 -48.5 q0 -26 9 -48.5 q9 -22.5 25.5 -39.5 q16.5 -17 38.5 -26.5 q22 -9.5 48 -9.5 q26 0 48.5 9.5 q22.5 9.5 39.5 26.5 q17 17 27 39.5 q10 22.5 10 48.5 q0 26 -10 48.5 q-10 22.5 -27 39.5 q-17 17 -39.5 26.5 q-22.5 9.5 -48.5 9.5 ZM158 0 l215 254 l-2 2 q-26 -11 -51 -17 q-25 -6 -55 -6 q-56 0 -100.5 22 q-44.5 22 -76 59 q-31.5 37 -48.5 85 q-17 48 -17 100 q0 69 26.5 122.5 q26.5 53.5 71 89.5 q44.5 36 103 54.5 q58.5 18.5 123.5 18.5 q55 0 113 -15 q58 -15 102 -50 q46 -37 73.5 -92.5 q27.5 -55.5 27.5 -115.5 q0 -41 -10 -81 q-10 -40 -26.5 -78 q-16.5 -38 -38.5 -73.5 q-22 -35.5 -46 -67.5 l-161 -211 l-223 0 Z" /><glyph glyph-name="colon" unicode=":" d="M172 551 q24 0 45.5 -9 q21.5 -9 37.5 -25 q16 -16 25 -37.5 q9 -21.5 9 -45.5 q0 -24 -9 -45.5 q-9 -21.5 -25 -37 q-16 -15.5 -37.5 -25 q-21.5 -9.5 -45.5 -9.5 q-24 0 -45.5 9.5 q-21.5 9.5 -37.5 25 q-16 15.5 -25 37 q-9 21.5 -9 45.5 q0 24 9 45.5 q9 21.5 25 37.5 q16 16 37.5 25 q21.5 9 45.5 9 ZM172 214 q24 0 45.5 -9 q21.5 -9 37.5 -25 q16 -16 25 -37.5 q9 -21.5 9 -45.5 q0 -24 -9 -45.5 q-9 -21.5 -25 -37 q-16 -15.5 -37.5 -25 q-21.5 -9.5 -45.5 -9.5 q-24 0 -45.5 9.5 q-21.5 9.5 -37.5 25 q-16 15.5 -25 37 q-9 21.5 -9 45.5 q0 24 9 45.5 q9 21.5 25 37.5 q16 16 37.5 25 q21.5 9 45.5 9 Z" /><glyph glyph-name="semicolon" unicode=";" d="M218 551 q24 0 45.5 -9 q21.5 -9 37.5 -25 q16 -16 25 -37.5 q9 -21.5 9 -45.5 q0 -24 -9 -45.5 q-9 -21.5 -25 -37 q-16 -15.5 -37.5 -25 q-21.5 -9.5 -45.5 -9.5 q-24 0 -45.5 9.5 q-21.5 9.5 -37.5 25 q-16 15.5 -25 37 q-9 21.5 -9 45.5 q0 24 9 45.5 q9 21.5 25 37.5 q16 16 37.5 25 q21.5 9 45.5 9 ZM309 191 l-184 -332 l-117 0 l130 332 l171 0 Z" /><glyph glyph-name="less" unicode="&lt;" d="M99 317 l489 182 l0 -150 l-274 -91 l0 -2 l274 -91 l0 -150 l-489 182 l0 120 Z" /><glyph glyph-name="equal" unicode="=" d="M599 212 l0 -150 l-512 0 l0 150 l512 0 ZM599 452 l0 -150 l-512 0 l0 150 l512 0 Z" /><glyph glyph-name="greater" unicode="&gt;" d="M588 197 l-489 -182 l0 150 l274 91 l0 2 l-274 91 l0 150 l489 -182 l0 -120 Z" /><glyph glyph-name="question" unicode="?" d="M281 214 q24 0 45.5 -9 q21.5 -9 37.5 -25 q16 -16 25 -37.5 q9 -21.5 9 -45.5 q0 -24 -9 -45.5 q-9 -21.5 -25 -37 q-16 -15.5 -37.5 -25 q-21.5 -9.5 -45.5 -9.5 q-24 0 -45.5 9.5 q-21.5 9.5 -37.5 25 q-16 15.5 -25 37 q-9 21.5 -9 45.5 q0 24 9 45.5 q9 21.5 25 37.5 q16 16 37.5 25 q21.5 9 45.5 9 ZM186 446 q23 -5 42 -5 q21 0 44 6 q23 6 42 18.5 q19 12.5 31 31 q12 18.5 12 43.5 q0 31 -20.5 53 q-20.5 22 -52.5 22 q-35 0 -52.5 -22 q-17.5 -22 -17.5 -54 l-199 0 q0 57 23 101 q23 44 61.5 73.5 q38.5 29.5 87.5 45 q49 15.5 102 15.5 q48 0 93 -15 q45 -15 82 -47 q38 -32 62 -77.5 q24 -45.5 24 -95.5 q0 -42 -14 -76.5 q-14 -34.5 -38.5 -61.5 q-24.5 -27 -57.5 -46.5 q-33 -19.5 -71 -31.5 l0 -71 l-183 0 l0 194 Z" /><glyph glyph-name="at" unicode="@" d="M542 310 q-2 -9 -4.5 -21 q-2.5 -12 -2.5 -23 q0 -10 4 -16.5 q4 -6.5 15 -5.5 q13 1 29.5 16.5 q16.5 15.5 31 39.5 q14.5 24 25 54.5 q10.5 30.5 12.5 63.5 q3 63 -17 112 q-20 49 -56.5 82.5 q-36.5 33.5 -87 50.5 q-50.5 17 -107.5 17 q-63 0 -115.5 -22.5 q-52.5 -22.5 -90 -63 q-37.5 -40.5 -58.5 -96 q-21 -55.5 -21 -121.5 q0 -69 23 -125 q23 -56 63.5 -95.5 q40.5 -39.5 96 -61 q55.5 -21.5 119.5 -21.5 q63 0 109 12.5 q46 12.5 70 27.5 l82 -66 q-53 -27 -120.5 -47.5 q-67.5 -20.5 -148.5 -20.5 q-81 0 -151.5 30 q-70.5 30 -123 83 q-52.5 53 -83 125.5 q-30.5 72.5 -30.5 158.5 q0 85 29.5 157.5 q29.5 72.5 81.5 125.5 q52 53 121.5 83.5 q69.5 30.5 149.5 30.5 q66 0 125.5 -21 q59.5 -21 109.5 -66 q51 -45 81.5 -103.5 q30.5 -58.5 30.5 -130.5 q0 -63 -16 -118 q-16 -55 -46 -95 q-36 -48 -77 -69 q-41 -21 -77 -19 q-21 1 -38.5 17.5 q-17.5 16.5 -23.5 40.5 q-20 -23 -51.5 -40.5 q-31.5 -17.5 -76.5 -17.5 q-33 0 -63.5 14.5 q-30.5 14.5 -53.5 40 q-23 25.5 -37 59 q-14 33.5 -14 72.5 q0 46 14.5 89.5 q14.5 43.5 41 77 q26.5 33.5 64 54 q37.5 20.5 84.5 20.5 q38 0 69 -15 q31 -15 54 -47 l10 53 l95 0 l-50 -260 ZM280 354 q0 -37 19.5 -64.5 q19.5 -27.5 56.5 -27.5 q23 0 40 10 q17 10 28 26 q11 16 17.5 35.5 q6.5 19.5 8.5 38.5 q5 43 -15 70 q-20 27 -57 27 q-21 0 -39 -10 q-18 -10 -31 -26.5 q-13 -16.5 -20.5 -37 q-7.5 -20.5 -7.5 -41.5 Z" /><glyph glyph-name="A" unicode="a" d="M393 521 l-2 0 l-81 -240 l163 0 l-80 240 ZM256 131 l-52 -131 l-208 0 l290 754 l214 0 l284 -754 l-209 0 l-49 131 l-270 0 Z" /><glyph glyph-name="B" unicode="b" d="M260 458 l22 0 q19 0 38 2.5 q19 2.5 34 10 q15 7.5 24.5 22 q9.5 14.5 9.5 38.5 q0 26 -10.5 40.5 q-10.5 14.5 -27 22 q-16.5 7.5 -36.5 9 q-20 1.5 -40 1.5 l-14 0 l0 -146 ZM64 0 l0 754 l280 0 q50 0 91.5 -10.5 q41.5 -10.5 71 -33.5 q29.5 -23 45.5 -60.5 q16 -37.5 16 -91.5 q0 -51 -18.5 -91 q-18.5 -40 -64.5 -63 l0 -2 q81 -11 117.5 -62 q36.5 -51 36.5 -130 q0 -59 -23.5 -99.5 q-23.5 -40.5 -61.5 -65 q-38 -24.5 -87 -35 q-49 -10.5 -101 -10.5 l-302 0 ZM260 150 l25 0 q22 0 49 1 q27 1 51 8 q24 7 40 23.5 q16 16.5 16 47.5 q0 34 -16 51 q-16 17 -40.5 24 q-24.5 7 -52.5 7 q-28 0 -52 0 l-20 0 l0 -162 Z" /><glyph glyph-name="C" unicode="c" d="M603 501 q-30 41 -75.5 62 q-45.5 21 -96.5 21 q-45 0 -82 -16 q-37 -16 -63.5 -44.5 q-26.5 -28.5 -41 -66.5 q-14.5 -38 -14.5 -82 q0 -45 14.5 -82.5 q14.5 -37.5 41.5 -64.5 q27 -27 64.5 -42.5 q37.5 -15.5 83.5 -15.5 q48 0 93 21.5 q45 21.5 76 58.5 l0 -235 q-49 -15 -88 -25 q-39 -10 -85 -10 q-79 0 -151.5 28.5 q-72.5 28.5 -131.5 82.5 q-63 57 -92 128.5 q-29 71.5 -29 156.5 q0 78 28.5 149 q28.5 71 82.5 127 q56 57 131.5 89.5 q75.5 32.5 155.5 32.5 q48 0 91.5 -10 q43.5 -10 87.5 -28 l0 -235 Z" /><glyph glyph-name="D" unicode="d" d="M260 166 l44 0 q44 0 83.5 12.5 q39.5 12.5 69 38 q29.5 25.5 47 65.5 q17.5 40 17.5 95 q0 51 -16 90 q-16 39 -44.5 66 q-28.5 27 -68 41 q-39.5 14 -86.5 14 l-46 0 l0 -422 ZM64 754 l278 0 q79 0 148.5 -29 q69.5 -29 121.5 -80 q52 -51 82.5 -120 q30.5 -69 30.5 -148 q0 -80 -30.5 -148.5 q-30.5 -68.5 -82.5 -119.5 q-52 -51 -122 -80 q-70 -29 -148 -29 l-278 0 l0 754 Z" /><glyph glyph-name="E" unicode="e" d="M260 588 l0 -126 l221 0 l0 -166 l-221 0 l0 -130 l233 0 l0 -166 l-429 0 l0 754 l429 0 l0 -166 l-233 0 Z" /><glyph glyph-name="F" unicode="f" d="M260 588 l0 -126 l215 0 l0 -166 l-215 0 l0 -296 l-196 0 l0 754 l433 0 l0 -166 l-237 0 Z" /><glyph glyph-name="G" unicode="g" d="M816 421 q-1 -41 -3.5 -79.5 q-2.5 -38.5 -10.5 -75.5 q-8 -37 -23 -72.5 q-15 -35.5 -40 -70.5 q-56 -78 -136 -113 q-80 -35 -175 -35 q-89 0 -163 29 q-74 29 -127 81.5 q-53 52.5 -82.5 125.5 q-29.5 73 -29.5 162 q0 92 29.5 167 q29.5 75 83.5 128 q54 53 129.5 82 q75.5 29 166.5 29 q117 0 204 -52.5 q87 -52.5 136 -158.5 l-186 -78 q-20 54 -61.5 87 q-41.5 33 -101.5 33 q-48 0 -85 -21 q-37 -21 -61.5 -55 q-24.5 -34 -37 -76.5 q-12.5 -42.5 -12.5 -85.5 q0 -44 13 -86.5 q13 -42.5 38 -75.5 q25 -33 62.5 -53.5 q37.5 -20.5 85.5 -20.5 q64 0 108 32.5 q44 32.5 50 98.5 l-160 0 l0 154 l389 0 Z" /><glyph glyph-name="H" unicode="h" d="M543 463 l0 291 l196 0 l0 -754 l-196 0 l0 309 l-283 0 l0 -309 l-196 0 l0 754 l196 0 l0 -291 l283 0 Z" /><glyph glyph-name="I" unicode="i" d="M260 0 l-196 0 l0 754 l196 0 l0 -754 Z" /><glyph glyph-name="J" unicode="j" d="M429 754 l0 -509 q0 -60 -15.5 -108.5 q-15.5 -48.5 -47 -83.5 q-31.5 -35 -78 -54 q-46.5 -19 -109.5 -19 q-63 0 -111.5 29.5 q-48.5 29.5 -82.5 81.5 l113 119 q17 -23 38 -43.5 q21 -20.5 41 -20.5 q22 0 33.5 11.5 q11.5 11.5 16.5 28.5 q5 17 5.5 36 q0.5 19 0.5 35 l0 497 l196 0 Z" /><glyph glyph-name="K" unicode="k" d="M499 754 l243 0 l-300 -357 l327 -397 l-254 0 l-253 327 l-2 0 l0 -327 l-196 0 l0 754 l196 0 l0 -311 l2 0 l237 311 Z" /><glyph glyph-name="L" unicode="l" d="M260 166 l235 0 l0 -166 l-431 0 l0 754 l196 0 l0 -588 Z" /><glyph glyph-name="M" unicode="m" d="M147 754 l193 0 l153 -403 l162 403 l195 0 l114 -754 l-196 0 l-55 434 l-2 0 l-181 -434 l-78 0 l-173 434 l-2 0 l-63 -434 l-195 0 l128 754 Z" /><glyph glyph-name="N" unicode="n" d="M64 754 l196 0 l359 -461 l2 0 l0 461 l196 0 l0 -754 l-196 0 l-359 462 l-2 0 l0 -462 l-196 0 l0 754 Z" /><glyph glyph-name="O" unicode="o" d="M443 589 q-44 0 -82.5 -16.5 q-38.5 -16.5 -67.5 -44 q-29 -27.5 -46 -63.5 q-17 -36 -17 -75 q0 -49 17 -90 q17 -41 46 -71 q29 -30 67.5 -47 q38.5 -17 82.5 -17 q44 0 82.5 17 q38.5 17 67.5 47 q29 30 46 71 q17 41 17 90 q0 39 -17 75 q-17 36 -46 63.5 q-29 27.5 -67.5 44 q-38.5 16.5 -82.5 16.5 ZM443 779 q81 0 156.5 -28.5 q75.5 -28.5 133.5 -80 q58 -51.5 92.5 -123 q34.5 -71.5 34.5 -156.5 q0 -92 -31 -168 q-31 -76 -86.5 -131.5 q-55.5 -55.5 -132 -86 q-76.5 -30.5 -167.5 -30.5 q-91 0 -167.5 30.5 q-76.5 30.5 -132 86 q-55.5 55.5 -86.5 131.5 q-31 76 -31 168 q0 85 34.5 156.5 q34.5 71.5 92.5 123 q58 51.5 133.5 80 q75.5 28.5 156.5 28.5 Z" /><glyph glyph-name="P" unicode="p" d="M260 408 l33 0 q27 0 52 1.5 q25 1.5 45 10 q20 8.5 32 27 q12 18.5 12 53.5 q0 36 -11.5 55.5 q-11.5 19.5 -30.5 28.5 q-19 9 -45 10.5 q-26 1.5 -54 1.5 l-33 0 l0 -188 ZM64 754 l300 0 q61 0 111.5 -14.5 q50.5 -14.5 86.5 -44.5 q36 -30 56 -77 q20 -47 20 -112 q0 -134 -69 -195 q-69 -61 -198 -61 l-111 0 l0 -250 l-196 0 l0 754 Z" /><glyph glyph-name="Q" unicode="q" d="M710 -47 l-60 71 q-44 -26 -95 -37.5 q-51 -11.5 -112 -11.5 q-91 0 -167.5 30.5 q-76.5 30.5 -132 86 q-55.5 55.5 -86.5 131.5 q-31 76 -31 168 q0 85 34.5 156.5 q34.5 71.5 92.5 123 q58 51.5 133.5 80 q75.5 28.5 156.5 28.5 q88 0 164 -28.5 q76 -28.5 132.5 -81.5 q56.5 -53 88.5 -127.5 q32 -74.5 32 -166.5 q0 -75 -24.5 -140.5 q-24.5 -65.5 -72.5 -124.5 l127 -129 l-180 -28 ZM621 263 q17 24 26 53 q9 29 9 58 q0 42 -16.5 81 q-16.5 39 -45 69 q-28.5 30 -67.5 47.5 q-39 17.5 -83 17.5 q-44 0 -83 -16.5 q-39 -16.5 -68 -44 q-29 -27.5 -46 -63.5 q-17 -36 -17 -75 q0 -49 17 -90 q17 -41 46 -71 q29 -30 68 -47 q39 -17 83 -17 q31 0 60 10 l-121 120 l185 23 l53 -55 Z" /><glyph glyph-name="R" unicode="r" d="M260 416 l19 0 q24 0 48 3 q24 3 43.5 13 q19.5 10 32 28.5 q12.5 18.5 12.5 49.5 q0 31 -12.5 49.5 q-12.5 18.5 -32 28.5 q-19.5 10 -43.5 13 q-24 3 -48 3 l-19 0 l0 -188 ZM691 0 l-244 0 l-185 290 l-2 0 l0 -290 l-196 0 l0 754 l293 0 q56 0 104 -13.5 q48 -13.5 83 -42 q35 -28.5 55 -72.5 q20 -44 20 -104 q0 -39 -10.5 -74.5 q-10.5 -35.5 -31.5 -64 q-21 -28.5 -52 -48 q-31 -19.5 -71 -26.5 l237 -309 Z" /><glyph glyph-name="S" unicode="s" d="M478 560 q-27 23 -60.5 36.5 q-33.5 13.5 -69.5 13.5 q-14 0 -28.5 -4 q-14.5 -4 -27 -12 q-12.5 -8 -20.5 -19.5 q-8 -11.5 -8 -27.5 q0 -17 9 -28.5 q9 -11.5 22 -20 q13 -8.5 28 -14 q15 -5.5 28 -9.5 l50 -15 q39 -12 73 -28.5 q34 -16.5 59 -40.5 q25 -24 39.5 -57.5 q14.5 -33.5 14.5 -79.5 q0 -56 -16.5 -110.5 q-16.5 -54.5 -61.5 -92.5 q-45 -38 -101 -54.5 q-56 -16.5 -113 -16.5 q-72 0 -139.5 22.5 q-67.5 22.5 -125.5 63.5 l84 158 q37 -32 80 -55 q43 -23 94 -23 q17 0 34 4.5 q17 4.5 30.5 13.5 q13.5 9 22 23.5 q8.5 14.5 8.5 34.5 q0 21 -12.5 35 q-12.5 14 -31 24 q-18.5 10 -39 16 q-20.5 6 -36.5 11 q-46 13 -83.5 27.5 q-37.5 14.5 -64.5 37.5 q-27 23 -41.5 58 q-14.5 35 -14.5 90 q0 57 19.5 104 q19.5 47 54 80 q34.5 33 82 51 q47.5 18 104.5 18 q28 0 59.5 -4.5 q31.5 -4.5 62 -12.5 q30.5 -8 60 -19.5 q29.5 -11.5 54.5 -25.5 l-78 -152 Z" /><glyph glyph-name="T" unicode="t" d="M364 0 l-196 0 l0 588 l-162 0 l0 166 l520 0 l0 -166 l-162 0 l0 -588 Z" /><glyph glyph-name="U" unicode="u" d="M718 754 l0 -424 q0 -36 -2 -72 q-2 -36 -9.5 -70 q-7.5 -34 -23.5 -65.5 q-16 -31.5 -44 -58.5 q-24 -23 -53.5 -39 q-29.5 -16 -62 -26 q-32.5 -10 -67 -14.5 q-34.5 -4.5 -67.5 -4.5 q-33 0 -67.5 4.5 q-34.5 4.5 -67 14.5 q-32.5 10 -62 26 q-29.5 16 -53.5 39 q-28 27 -44 58.5 q-16 31.5 -23.5 65.5 q-7.5 34 -9.5 70 q-2 36 -2 72 l0 424 l196 0 l0 -397 q0 -37 3 -73.5 q3 -36.5 16 -66 q13 -29.5 40 -47.5 q27 -18 74 -18 q47 0 74 18 q27 18 40 47.5 q13 29.5 16 66 q3 36.5 3 73.5 l0 397 l196 0 Z" /><glyph glyph-name="V" unicode="v" d="M380 296 l183 458 l213 0 l-322 -754 l-152 0 l-317 754 l213 0 l182 -458 Z" /><glyph glyph-name="W" unicode="w" d="M320 267 l2 0 l158 487 l156 0 l148 -487 l2 0 l142 487 l204 0 l-241 -754 l-200 0 l-132 437 l-2 0 l-148 -437 l-199 0 l-225 754 l204 0 l131 -487 Z" /><glyph glyph-name="X" unicode="x" d="M46 754 l241 0 l115 -195 l115 195 l241 0 l-241 -351 l279 -403 l-236 0 l-158 246 l-173 -246 l-237 0 l295 403 l-241 351 Z" /><glyph glyph-name="Y" unicode="y" d="M-19 754 l235 0 l141 -205 l141 205 l235 0 l-278 -392 l0 -362 l-196 0 l0 362 l-278 392 Z" /><glyph glyph-name="Z" unicode="z" d="M657 166 l0 -166 l-646 0 l357 588 l-296 0 l0 166 l624 0 l-355 -588 l316 0 Z" /><glyph glyph-name="bracketleft" unicode="[" d="M191 -134 l107 0 l0 -106 l-246 0 l0 1030 l246 0 l0 -106 l-107 0 l0 -818 Z" /><glyph glyph-name="backslash" unicode="\" d="M171 830 l381 -830 l-142 0 l-383 830 l144 0 Z" /><glyph glyph-name="bracketright" unicode="]" d="M159 684 l-107 0 l0 106 l246 0 l0 -1030 l-246 0 l0 106 l107 0 l0 818 Z" /><glyph glyph-name="asciicircum" unicode="^" d="M103 407 l180 377 l120 0 l180 -377 l-114 -67 l-126 269 l-126 -269 l-114 67 Z" /><glyph glyph-name="underscore" unicode="_" d="M0 -125 l0 50 l500 0 l0 -50 l-500 0 Z" /><glyph glyph-name="grave" unicode="`" d="M186 820 l141 -172 l-81 -59 l-171 151 l111 80 Z" /><glyph glyph-name="a" unicode="a" d="M621 0 l-182 0 l0 57 l-2 0 q-24 -38 -67 -56 q-43 -18 -88 -18 q-57 0 -104.5 22 q-47.5 22 -82 59.5 q-34.5 37.5 -53.5 87.5 q-19 50 -19 105 q0 55 19 104.5 q19 49.5 52.5 87 q33.5 37.5 81 59.5 q47.5 22 104.5 22 q45 0 87.5 -16.5 q42.5 -16.5 71.5 -50.5 l0 50 l182 0 l0 -513 ZM328 372 q-28 0 -49.5 -9.5 q-21.5 -9.5 -36.5 -25 q-15 -15.5 -23 -36.5 q-8 -21 -8 -45 q0 -49 30.5 -82 q30.5 -33 86.5 -33 q56 0 86.5 33 q30.5 33 30.5 82 q0 24 -8 45 q-8 21 -23 36.5 q-15 15.5 -36.5 25 q-21.5 9.5 -49.5 9.5 Z" /><glyph glyph-name="b" unicode="b" d="M347 372 q-28 0 -49.5 -9.5 q-21.5 -9.5 -36.5 -25 q-15 -15.5 -23 -36.5 q-8 -21 -8 -45 q0 -49 30.5 -82 q30.5 -33 86.5 -33 q56 0 86.5 33 q30.5 33 30.5 82 q0 24 -8 45 q-8 21 -23 36.5 q-15 15.5 -36.5 25 q-21.5 9.5 -49.5 9.5 ZM54 830 l182 0 l0 -367 q29 34 71.5 50.5 q42.5 16.5 87.5 16.5 q57 0 104.5 -22 q47.5 -22 81 -59.5 q33.5 -37.5 52.5 -87 q19 -49.5 19 -104.5 q0 -56 -19 -105.5 q-19 -49.5 -53 -87 q-34 -37.5 -82 -59.5 q-48 -22 -105 -22 q-45 0 -87.5 18 q-42.5 18 -67.5 56 l-2 0 l0 -57 l-182 0 l0 830 Z" /><glyph glyph-name="c" unicode="c" d="M430 346 q-20 15 -44 25.5 q-24 10.5 -50 10.5 q-26 0 -49 -9.5 q-23 -9.5 -40 -26.5 q-17 -17 -26.5 -39.5 q-9.5 -22.5 -9.5 -49.5 q0 -56 35.5 -91 q35.5 -35 92.5 -35 q24 0 48.5 9 q24.5 9 42.5 26 l0 -154 q-30 -15 -62.5 -22 q-32.5 -7 -65.5 -7 q-57 0 -107.5 20 q-50.5 20 -89 56 q-38.5 36 -60.5 85 q-22 49 -22 107 q0 62 22 113.5 q22 51.5 61 88 q39 36.5 91.5 57 q52.5 20.5 112.5 20.5 q32 0 62.5 -7.5 q30.5 -7.5 57.5 -22.5 l0 -154 Z" /><glyph glyph-name="d" unicode="d" d="M335 372 q-28 0 -49.5 -9.5 q-21.5 -9.5 -36.5 -25 q-15 -15.5 -23 -36.5 q-8 -21 -8 -45 q0 -49 30.5 -82 q30.5 -33 86.5 -33 q56 0 86.5 33 q30.5 33 30.5 82 q0 24 -8 45 q-8 21 -23 36.5 q-15 15.5 -36.5 25 q-21.5 9.5 -49.5 9.5 ZM446 57 l-2 0 q-24 -38 -67 -56 q-43 -18 -88 -18 q-57 0 -104.5 22 q-47.5 22 -82 59.5 q-34.5 37.5 -53.5 87.5 q-19 50 -19 105 q0 55 19 104.5 q19 49.5 52.5 87 q33.5 37.5 81 59.5 q47.5 22 104.5 22 q45 0 87.5 -16.5 q42.5 -16.5 71.5 -50.5 l0 367 l182 0 l0 -830 l-182 0 l0 57 Z" /><glyph glyph-name="e" unicode="e" d="M587 226 l-383 0 q0 -56 28.5 -85 q28.5 -29 85.5 -29 q29 0 50.5 10.5 q21.5 10.5 36.5 36.5 l175 0 q-11 -45 -36.5 -78.5 q-25.5 -33.5 -61 -55 q-35.5 -21.5 -77.5 -32 q-42 -10.5 -86 -10.5 q-64 0 -118.5 18 q-54.5 18 -94 52.5 q-39.5 34.5 -62 85.5 q-22.5 51 -22.5 117 q0 64 21 115 q21 51 58.5 86 q37.5 35 89.5 54 q52 19 115 19 q67 0 119 -20 q52 -20 88 -57 q36 -37 55 -89.5 q19 -52.5 19 -118.5 l0 -19 ZM418 331 q-7 37 -36.5 59 q-29.5 22 -66.5 22 q-40 0 -70 -20.5 q-30 -20.5 -38 -60.5 l211 0 Z" /><glyph glyph-name="f" unicode="f" d="M260 0 l-182 0 l0 363 l-64 0 l0 150 l64 0 l0 65 q0 27 1 50 q1 23 6 45 q5 22 15.5 43 q10.5 21 29.5 42 q34 40 80.5 61 q46.5 21 98.5 21 q21 0 40 -4 q19 -4 38 -14 l0 -157 q-16 7 -31 12 q-15 5 -33 5 q-35 0 -49 -21 q-14 -21 -14 -65 l0 -83 l127 0 l0 -150 l-127 0 l0 -363 Z" /><glyph glyph-name="g" unicode="g" d="M330 376 q-28 0 -49.5 -9.5 q-21.5 -9.5 -36.5 -25 q-15 -15.5 -23 -36.5 q-8 -21 -8 -45 q0 -49 30.5 -82 q30.5 -33 86.5 -33 q56 0 86.5 33 q30.5 33 30.5 82 q0 24 -8 45 q-8 21 -23 36.5 q-15 15.5 -36.5 25 q-21.5 9.5 -49.5 9.5 ZM623 50 q0 -82 -20 -140 q-20 -58 -58 -95 q-38 -37 -93 -54 q-55 -17 -126 -17 q-44 0 -93 11.5 q-49 11.5 -91 35.5 q-42 24 -72 61 q-30 37 -36 88 l204 0 q4 -14 13 -23.5 q9 -9.5 21 -15.5 q24 -12 52 -12 q37 0 59.5 11.5 q22.5 11.5 35.5 31 q13 19.5 17.5 46.5 q4.5 27 4.5 58 l0 24 q-35 -35 -73.5 -52.5 q-38.5 -17.5 -89.5 -17.5 q-56 0 -102.5 20 q-46.5 20 -80 55.5 q-33.5 35.5 -52 83 q-18.5 47.5 -18.5 103.5 q0 56 19 106.5 q19 50.5 53.5 88.5 q34.5 38 83 60.5 q48.5 22.5 107.5 22.5 q45 0 84.5 -16.5 q39.5 -16.5 66.5 -54.5 l2 0 l0 54 l182 0 l0 -463 Z" /><glyph glyph-name="h" unicode="h" d="M242 830 l0 -382 l2 0 q32 42 71 62 q39 20 93 20 q49 0 85 -15.5 q36 -15.5 60 -44 q24 -28.5 36 -68 q12 -39.5 12 -88.5 l0 -314 l-182 0 l0 263 q0 22 -2.5 44 q-2.5 22 -11 39.5 q-8.5 17.5 -25 28 q-16.5 10.5 -43.5 10.5 q-27 0 -45 -10.5 q-18 -10.5 -29.5 -28 q-11.5 -17.5 -16 -39.5 q-4.5 -22 -4.5 -44 l0 -263 l-182 0 l0 830 l182 0 Z" /><glyph glyph-name="i" unicode="i" d="M151 812 q21 0 39.5 -8 q18.5 -8 32.5 -22 q14 -14 22 -32.5 q8 -18.5 8 -39.5 q0 -21 -8 -39.5 q-8 -18.5 -22 -32.5 q-14 -14 -32.5 -22 q-18.5 -8 -39.5 -8 q-21 0 -39.5 8 q-18.5 8 -32.5 22 q-14 14 -22 32.5 q-8 18.5 -8 39.5 q0 21 8 39.5 q8 18.5 22 32.5 q14 14 32.5 22 q18.5 8 39.5 8 ZM242 0 l-182 0 l0 513 l182 0 l0 -513 Z" /><glyph glyph-name="j" unicode="j" d="M151 812 q21 0 39.5 -8 q18.5 -8 32.5 -22 q14 -14 22 -32.5 q8 -18.5 8 -39.5 q0 -21 -8 -39.5 q-8 -18.5 -22 -32.5 q-14 -14 -32.5 -22 q-18.5 -8 -39.5 -8 q-21 0 -39.5 8 q-18.5 8 -32.5 22 q-14 14 -22 32.5 q-8 18.5 -8 39.5 q0 21 8 39.5 q8 18.5 22 32.5 q14 14 32.5 22 q18.5 8 39.5 8 ZM242 -256 l-182 0 l0 769 l182 0 l0 -769 Z" /><glyph glyph-name="k" unicode="k" d="M242 328 l189 185 l249 0 l-257 -237 l273 -276 l-255 0 l-199 209 l0 -209 l-182 0 l0 830 l182 0 l0 -502 Z" /><glyph glyph-name="l" unicode="l" d="M242 0 l-182 0 l0 830 l182 0 l0 -830 Z" /><glyph glyph-name="m" unicode="m" d="M242 449 l2 0 q32 43 72 62 q40 19 90 19 q56 0 101.5 -23.5 q45.5 -23.5 73.5 -74.5 q26 48 73.5 73 q47.5 25 100.5 25 q49 0 82.5 -15 q33.5 -15 54 -42 q20.5 -27 29.5 -64.5 q9 -37.5 9 -81.5 l0 -327 l-182 0 l0 245 q0 20 -1 44.5 q-1 24.5 -7.5 45.5 q-6.5 21 -22 35.5 q-15.5 14.5 -44.5 14.5 q-32 0 -49.5 -13.5 q-17.5 -13.5 -25.5 -34 q-8 -20.5 -10 -45 q-2 -24.5 -2 -47.5 l0 -245 l-182 0 l0 245 q0 21 -1.5 46.5 q-1.5 25.5 -9 47 q-7.5 21.5 -24 36 q-16.5 14.5 -46.5 14.5 q-30 0 -46.5 -14.5 q-16.5 -14.5 -24 -36 q-7.5 -21.5 -9 -47 q-1.5 -25.5 -1.5 -46.5 l0 -245 l-182 0 l0 513 l182 0 l0 -64 Z" /><glyph glyph-name="n" unicode="n" d="M242 447 l2 0 q32 47 71 65 q39 18 93 18 q52 0 88.5 -15.5 q36.5 -15.5 59.5 -43.5 q23 -28 34 -67.5 q11 -39.5 11 -86.5 l0 -317 l-182 0 l0 250 q0 18 0 41 q0 24 -7 45 q-7 21 -24 35 q-17 14 -51 14 q-28 0 -46 -9.5 q-18 -9.5 -29 -26 q-11 -16.5 -15.5 -38 q-4.5 -21.5 -4.5 -45.5 l0 -266 l-182 0 l0 513 l182 0 l0 -66 Z" /><glyph glyph-name="o" unicode="o" d="M331 372 q-28 0 -49.5 -9.5 q-21.5 -9.5 -36.5 -25 q-15 -15.5 -23 -36.5 q-8 -21 -8 -45 q0 -49 30.5 -82 q30.5 -33 86.5 -33 q56 0 86.5 33 q30.5 33 30.5 82 q0 24 -8 45 q-8 21 -23 36.5 q-15 15.5 -36.5 25 q-21.5 9.5 -49.5 9.5 ZM331 530 q62 0 118 -18 q56 -18 98.5 -53 q42.5 -35 67.5 -86 q25 -51 25 -117 q0 -65 -25 -116 q-25 -51 -67.5 -86 q-42.5 -35 -98.5 -53 q-56 -18 -118 -18 q-62 0 -117.5 18 q-55.5 18 -98.5 53 q-43 35 -68 85.5 q-25 50.5 -25 116.5 q0 66 25 117 q25 51 67.5 86 q42.5 35 98.5 53 q56 18 118 18 Z" /><glyph glyph-name="p" unicode="p" d="M347 372 q-28 0 -49.5 -9.5 q-21.5 -9.5 -36.5 -25 q-15 -15.5 -23 -36.5 q-8 -21 -8 -45 q0 -49 30.5 -82 q30.5 -33 86.5 -33 q56 0 86.5 33 q30.5 33 30.5 82 q0 24 -8 45 q-8 21 -23 36.5 q-15 15.5 -36.5 25 q-21.5 9.5 -49.5 9.5 ZM236 455 l2 0 q25 38 67.5 56.5 q42.5 18.5 87.5 18.5 q57 0 105 -22.5 q48 -22.5 82 -60 q34 -37.5 53 -87.5 q19 -50 19 -105 q0 -56 -19 -105 q-19 -49 -52.5 -86.5 q-33.5 -37.5 -81 -59 q-47.5 -21.5 -104.5 -21.5 q-45 0 -87.5 16 q-42.5 16 -71.5 50 l0 -305 l-182 0 l0 769 l182 0 l0 -58 Z" /><glyph glyph-name="q" unicode="q" d="M335 372 q-28 0 -49.5 -9.5 q-21.5 -9.5 -36.5 -25 q-15 -15.5 -23 -36.5 q-8 -21 -8 -45 q0 -49 30.5 -82 q30.5 -33 86.5 -33 q56 0 86.5 33 q30.5 33 30.5 82 q0 24 -8 45 q-8 21 -23 36.5 q-15 15.5 -36.5 25 q-21.5 9.5 -49.5 9.5 ZM628 -256 l-182 0 l0 305 q-29 -34 -71.5 -50 q-42.5 -16 -87.5 -16 q-57 0 -104.5 21.5 q-47.5 21.5 -81.5 59 q-34 37.5 -52.5 86.5 q-18.5 49 -18.5 105 q0 55 19 104.5 q19 49.5 53.5 87.5 q34.5 38 82 60.5 q47.5 22.5 104.5 22.5 q45 0 88 -18.5 q43 -18.5 67 -56.5 l2 0 l0 58 l182 0 l0 -769 Z" /><glyph glyph-name="r" unicode="r" d="M242 429 l2 0 q26 48 69 69.5 q43 21.5 97 21.5 l35 0 l0 -175 q-19 11 -37.5 14 q-18.5 3 -39.5 3 q-38 0 -62.5 -12 q-24.5 -12 -38.5 -32.5 q-14 -20.5 -19.5 -49 q-5.5 -28.5 -5.5 -61.5 l0 -207 l-182 0 l0 513 l182 0 l0 -84 Z" /><glyph glyph-name="s" unicode="s" d="M399 381 q-21 11 -48 18 q-27 7 -50 7 q-8 0 -18 -2 q-10 -2 -18.5 -6 q-8.5 -4 -14.5 -10.5 q-6 -6.5 -6 -16.5 q0 -13 9.5 -21 q9.5 -8 22.5 -12.5 q13 -4.5 27 -7 q14 -2.5 23 -4.5 q32 -6 59 -17.5 q27 -11.5 47 -29.5 q20 -18 31.5 -43.5 q11.5 -25.5 11.5 -61.5 q0 -51 -21 -87 q-21 -36 -55.5 -59 q-34.5 -23 -77.5 -34 q-43 -11 -88 -11 q-55 0 -107.5 15 q-52.5 15 -99.5 44 l66 127 q14 -10 32 -19 q18 -9 37 -16.5 q19 -7.5 38.5 -12 q19.5 -4.5 36.5 -4.5 q9 0 19 2 q10 2 18.5 7 q8.5 5 14 12 q5.5 7 5.5 18 q0 15 -10 23.5 q-10 8.5 -26 14 q-16 5.5 -36.5 9.5 q-20.5 4 -41.5 10 q-21 6 -41.5 14.5 q-20.5 8.5 -36.5 24 q-16 15.5 -26 38.5 q-10 23 -10 58 q0 47 19.5 81.5 q19.5 34.5 51.5 57 q32 22.5 72.5 33 q40.5 10.5 82.5 10.5 q44 0 86.5 -7.5 q42.5 -7.5 82.5 -25.5 l-61 -116 Z" /><glyph glyph-name="t" unicode="t" d="M259 0 l-182 0 l0 363 l-59 0 l0 150 l59 0 l0 154 l182 0 l0 -154 l103 0 l0 -150 l-103 0 l0 -363 Z" /><glyph glyph-name="u" unicode="u" d="M239 513 l0 -274 q0 -24 3.5 -44.5 q3.5 -20.5 13.5 -35.5 q10 -15 28 -23 q18 -8 46 -8 q28 0 46 8 q18 8 28 23 q10 15 13.5 35.5 q3.5 20.5 3.5 44.5 l0 274 l182 0 l0 -309 q0 -63 -21 -105.5 q-21 -42.5 -58 -68 q-37 -25.5 -86.5 -36.5 q-49.5 -11 -107.5 -11 q-58 0 -108 11 q-50 11 -86.5 36.5 q-36.5 25.5 -57.5 68 q-21 42.5 -21 105.5 l0 309 l182 0 Z" /><glyph glyph-name="v" unicode="v" d="M312 250 l122 263 l204 0 l-268 -513 l-116 0 l-269 513 l204 0 l123 -263 Z" /><glyph glyph-name="w" unicode="w" d="M315 235 l129 278 l108 0 l129 -278 l129 278 l201 0 l-268 -513 l-118 0 l-127 281 l-127 -281 l-118 0 l-268 513 l202 0 l128 -278 Z" /><glyph glyph-name="x" unicode="x" d="M33 513 l231 0 l92 -106 l92 106 l235 0 l-212 -235 l256 -278 l-239 0 l-132 152 l-132 -152 l-239 0 l256 278 l-208 235 Z" /><glyph glyph-name="y" unicode="y" d="M-15 513 l210 0 l137 -263 l134 263 l207 0 l-411 -769 l-204 0 l175 326 l-248 443 Z" /><glyph glyph-name="z" unicode="z" d="M528 151 l0 -151 l-520 0 l241 362 l-209 0 l0 151 l512 0 l-240 -362 l216 0 Z" /><glyph glyph-name="braceleft" unicode="{" d="M36 331 q7 0 19 0.5 q12 0.5 23.5 5 q11.5 4.5 19.5 15.5 q8 11 8 32 l0 253 q0 40 12.5 69 q12.5 29 30.5 47.5 q18 18.5 37 27.5 q19 9 33 9 l97 0 l0 -120 l-25 0 q-17 0 -26.5 -5.5 q-9.5 -5.5 -14 -13.5 q-4.5 -8 -5 -19 q-0.5 -11 -0.5 -21 l0 -225 q0 -32 -10.5 -52 q-10.5 -20 -25.5 -31 q-15 -11 -31.5 -16 q-16.5 -5 -28.5 -7 l0 -2 q12 -2 28.5 -5.5 q16.5 -3.5 31.5 -15 q15 -11.5 25.5 -34 q10.5 -22.5 10.5 -62.5 l0 -222 q0 -11 0.5 -21.5 q0.5 -10.5 5 -19 q4.5 -8.5 14 -13.5 q9.5 -5 26.5 -5 l25 0 l0 -120 l-97 0 q-14 0 -33 9 q-19 9 -37 27.5 q-18 18.5 -30.5 47 q-12.5 28.5 -12.5 67.5 l0 253 q0 26 -8 39 q-8 13 -19.5 18.5 q-11.5 5.5 -23.5 5.5 q-12 0 -19 0 l0 104 Z" /><glyph glyph-name="bar" unicode="|" d="M365 -214 l-150 0 l0 1000 l150 0 l0 -1000 Z" /><glyph glyph-name="braceright" unicode="}" d="M316 227 q-8 0 -20 0 q-11 0 -22.5 -5.5 q-11.5 -5.5 -19.5 -18.5 q-8 -13 -8 -39 l0 -253 q0 -39 -12.5 -67.5 q-12.5 -28.5 -30.5 -47 q-18 -18.5 -37.5 -27.5 q-19.5 -9 -32.5 -9 l-97 0 l0 120 l25 0 q17 0 26.5 5 q9.5 5 14 13.5 q4.5 8.5 5 19 q0.5 10.5 0.5 21.5 l0 222 q0 40 10.5 62.5 q10.5 22.5 25.5 34 q15 11.5 31.5 15 q16.5 3.5 28.5 5.5 l0 2 q-12 2 -28.5 7 q-16.5 5 -31.5 16 q-15 11 -25.5 31 q-10.5 20 -10.5 52 l0 225 q0 10 -0.5 21 q-0.5 11 -5 19 q-4.5 8 -14 13.5 q-9.5 5.5 -26.5 5.5 l-25 0 l0 120 l97 0 q13 0 32.5 -9 q19.5 -9 37.5 -27.5 q18 -18.5 30.5 -47.5 q12.5 -29 12.5 -69 l0 -253 q0 -21 8 -32 q8 -11 19.5 -15.5 q11.5 -4.5 23 -5 q11.5 -0.5 19.5 -0.5 l0 -104 Z" /><glyph glyph-name="asciitilde" unicode="~" d="M637 276 q-13 -22 -30.5 -49 q-17.5 -27 -39 -51 q-21.5 -24 -48 -40 q-26.5 -16 -57.5 -16 q-37 0 -67 16.5 q-30 16.5 -56 31.5 q-34 20 -61.5 39 q-27.5 19 -50.5 19 q-10 0 -19.5 -8.5 q-9.5 -8.5 -17.5 -21.5 q-8 -13 -15.5 -27.5 q-7.5 -14.5 -12.5 -26.5 l-113 96 q16 19 34 46 q18 27 39 52 q21 25 46.5 42 q25.5 17 56.5 17 q31 0 65 -17 q34 -17 63 -39 q24 -19 54.5 -34.5 q30.5 -15.5 53.5 -15.5 q10 0 19.5 9.5 q9.5 9.5 18 22.5 q8.5 13 14.5 27.5 q6 14.5 10 24.5 l114 -97 Z" /></font>
</defs>
</svg>
