<svg xmlns="http://www.w3.org/2000/svg" viewBox="0 0 32 32"><g fill="none" fill-rule="evenodd"><path fill="#717B83" d="M16 29a13 13 0 1 1 0-26 13 13 0 0 1 0 26zm10.35-15.23c-.65 0-1.22.42-1.54 1.03a10.47 10.47 0 0 0-6.12-5.42c-1.5-.6-2.56-1.75-2.69-3.1-.13 1.35-1.19 2.5-2.69 3.1-2.78.9-5.04 3.07-6.12 5.42-.32-.61-.89-1.03-1.54-1.03-1 0-1.8.97-1.8 2.17s.8 2.17 1.8 2.17c.3 0 .6-.09.84-.25.09 3.9 4.31 6.42 9.51 6.43 5.2-.01 9.42-2.54 9.5-6.43.26.16.54.25.85.25 1 0 1.8-.97 1.8-2.17s-.8-2.17-1.8-2.17zM16 23.2c-4.17 0-7.55-1.97-7.55-4.78a3.64 3.64 0 0 1 .04-.51v-.02c.09-.55.3-1.4.63-1.88a4.55 4.55 0 0 1 3.75-1.88c1.23 0 2.33.44 3.13 1.16.8-.72 1.9-1.16 3.13-1.16 1.58 0 2.97.75 3.75 1.88.33.48.54 1.33.63 1.88v.02a3.34 3.34 0 0 1 .03.27v.24c0 2.81-3.37 4.78-7.54 4.78zm-5.16-6.37c0 .26.18.47.4.47.22 0 .4-.2.4-.47 0-.26-.18-.48-.4-.48-.22 0-.4.22-.4.48zm9.4 0c0 .26.19.47.4.47.22 0 .4-.2.4-.47 0-.26-.18-.48-.4-.48-.21 0-.4.22-.4.48z"/></g></svg>