<svg xmlns="http://www.w3.org/2000/svg" viewBox="0 0 32 32"><g fill="none" fill-rule="evenodd"><path fill="#717B83" d="M16 29a13 13 0 1 1 0-26 13 13 0 0 1 0 26zm-3.67-16.05H9.18v9.44h3.15v-9.44zm.2-2.92c-.01-.47-.17-.86-.49-1.16-.32-.31-.74-.47-1.27-.47-.52 0-.95.16-1.28.47-.33.3-.49.7-.49 1.16 0 .47.16.85.48 1.17.31.3.73.46 1.25.46h.02c.54 0 .97-.15 1.3-.46.32-.31.48-.7.48-1.17zm11.1 6.95c0-1.39-.32-2.45-.98-3.17a3.39 3.39 0 0 0-2.63-1.08c-.4 0-.76.05-1.09.15-.32.1-.6.24-.83.41a4.04 4.04 0 0 0-.92 1.03h.01v-1.37h-3.13v.46a1293.37 1293.37 0 0 1 0 8.99h3.13v-5.28c0-.32.04-.58.11-.77.13-.32.33-.6.6-.81.27-.22.61-.33 1.01-.33.55 0 .95.19 1.2.57.26.37.4.9.4 1.56v5.05h3.13V17z"/></g></svg>