<svg xmlns="http://www.w3.org/2000/svg" viewBox="0 0 32 32"><path fill="#717B83" fill-rule="evenodd" d="M16 29a13 13 0 1 1 0-26 13 13 0 0 1 0 26zm8.48-10.55c0-2.5-2.37-4.5-5.3-4.5-2.93 0-5.31 2-5.31 4.5 0 2.48 2.38 4.5 5.3 4.5.93 0 1.8-.2 2.55-.55l2.1.9-.25-2.33c.58-.72.91-1.59.91-2.52zm-7.1-1.22a.75.75 0 1 1 0-1.51.75.75 0 0 1 0 1.5zm3.58 0a.75.75 0 1 1 0-1.51.75.75 0 0 1 0 1.5zm-1.78-3.89c.82 0 1.6.15 2.3.41l.02-.28c0-3.29-3.13-5.95-7-5.95-3.88 0-7.02 2.66-7.02 5.95 0 1.24.45 2.39 1.2 3.34l-.31 3.08 2.76-1.2c.69.32 1.44.54 2.24.65a4.4 4.4 0 0 1-.1-.9c0-2.8 2.65-5.1 5.9-5.1zm-2.32-3.47a1 1 0 1 1 0 1.99 1 1 0 0 1 0-2zm-4.73 1.99a1 1 0 1 1 0-2 1 1 0 0 1 0 2z"/></svg>