<svg xmlns="http://www.w3.org/2000/svg" viewBox="0 0 32 32"><path fill="#717B83" d="M16.01 3.06c3.7.09 6.75 1.35 9.19 3.8a13.05 13.05 0 0 1 3.78 9.25 13.1 13.1 0 0 1-8.9 12.43c-.33.04-.57 0-.7-.12a.85.85 0 0 1-.2-.5l.04-3.6a3.35 3.35 0 0 0-.9-2.4 7.36 7.36 0 0 0 4.07-1.48c1.18-.86 1.83-2.53 1.91-4.98 0-.7-.12-1.36-.36-1.93a5.52 5.52 0 0 0-.98-1.55 5.04 5.04 0 0 0-.12-3.48c0-.04-.28-.04-.85.04-.57.09-1.47.54-2.73 1.31a12.25 12.25 0 0 0-6.5 0 7.67 7.67 0 0 0-2.72-1.3c-.57-.09-.85-.09-.85-.05a5.05 5.05 0 0 0-.13 3.48 4.98 4.98 0 0 0-1.34 3.52c.08 2.45.7 4.08 1.87 4.99a7.12 7.12 0 0 0 4.02 1.47c-.2.16-.36.37-.48.65-.16.29-.25.66-.33 1.06a3.3 3.3 0 0 1-1.79.3c-.77-.05-1.42-.5-1.99-1.4a2.7 2.7 0 0 0-.93-.98c-.37-.2-.7-.33-1.1-.37-.32-.04-.53 0-.6.16-.09.13.07.33.48.62.4.28.73.57.93.9.2.32.37.7.53 1.02.2.53.65.98 1.38 1.35.7.37 1.71.4 3.01.16l.04 2.42c0 .2-.08.36-.2.49-.12.16-.37.2-.7.12-2.63-.9-4.75-2.5-6.37-4.7A12.95 12.95 0 0 1 3 16.06 12.97 12.97 0 0 1 15.97 3.03l.04.04z"/></svg>