<?xml version="1.0" encoding="UTF-8"?>
<svg width="48px" height="48px" viewBox="0 0 48 48" version="1.1" xmlns="http://www.w3.org/2000/svg" xmlns:xlink="http://www.w3.org/1999/xlink">
    <!-- Generator: Sketch 46.2 (44496) - http://www.bohemiancoding.com/sketch -->
    <title>Icon / Fe / Gulp</title>
    <desc>Created with Sketch.</desc>
    <defs></defs>
    <g stroke="none" stroke-width="1" fill="none" fill-rule="evenodd">
        <g fill="#FF4A7A" fill-rule="nonzero">
            <path d="M14.8127061,24.4030357 C14.7847597,24.4443304 14.7342239,24.5744643 14.6610097,24.7932143 C14.5877507,25.0122768 14.4988222,25.2868304 14.39409,25.6174107 C14.2776425,25.9860319 14.1643052,26.3556284 14.05409,26.7261607 C13.929352,27.1435373 13.8037862,27.5606661 13.6773936,27.9775446 C13.5511029,28.3939787 13.4273357,28.8111738 13.3060989,29.2291071 C13.1987003,29.5984295 13.0923606,29.968059 12.9870811,30.3379911 C12.9081437,30.6146177 12.8296615,30.8913741 12.7516347,31.1682589 C12.6888668,31.3911607 12.6504293,31.5231696 12.6366347,31.5647768 C12.6016793,31.6967857 12.5459204,31.8434375 12.4693579,32.0046875 C12.3927034,32.1653976 12.3016783,32.3188494 12.1973936,32.4631696 C12.0927061,32.6075893 11.97784,32.7273661 11.8521704,32.8225446 C11.7265007,32.9174107 11.5974829,32.9649107 11.4651614,32.9649107 C11.2418132,32.9649107 11.0797597,32.8905804 10.9786882,32.7420089 C10.8773489,32.5931696 10.8269918,32.3208482 10.8269918,31.9243304 L10.8269918,31.7506696 C10.8269918,31.6928125 10.83034,31.6308929 10.8374829,31.5649554 C10.8443132,31.4327679 10.8967239,31.1846429 10.9944472,30.8212946 C11.0919918,30.4578125 11.2089114,30.0469643 11.3448936,29.5884821 C11.4808757,29.13 11.6273489,28.6551339 11.7843132,28.1635714 C11.9247507,27.7233604 12.0659861,27.2834043 12.2080186,26.8437054 C11.8381525,27.2570982 11.4373489,27.6679018 11.0050722,28.0766964 C10.5724829,28.485625 10.129715,28.8532589 9.67645608,29.1794196 C9.22306322,29.5060714 8.76627751,29.7723214 8.3060543,29.9787054 C7.84583108,30.1849107 7.40275072,30.2884821 6.97743822,30.2884821 C6.48922394,30.2884821 6.06904537,30.1809375 5.71681322,29.9662946 C5.36458108,29.7513393 5.0735543,29.470625 4.84337572,29.1236607 C4.61319715,28.7766964 4.44221501,28.3844643 4.33069715,27.9466071 C4.21900072,27.50875 4.1632418,27.0710714 4.1632418,26.6332589 L4.1632418,26.4720089 C4.1632418,26.4225893 4.16659001,26.3730357 4.17373287,26.3234821 C4.21551858,25.5304018 4.32877751,24.7168304 4.51373287,23.8824554 C4.69850965,23.0480804 4.94078644,22.2178125 5.24087572,21.391875 C5.54103148,20.5650852 5.8885716,19.7562749 6.28176858,18.9694643 C6.67560787,18.1806696 7.10453644,17.4351339 7.56846501,16.7329018 C8.03221501,16.0310268 8.52565251,15.3845982 9.04864358,14.79375 C9.57163465,14.2032143 10.1085989,13.6951786 10.659715,13.2697321 C11.2105186,12.8444196 11.7667239,12.5119196 12.3281525,12.2723661 C12.8894472,12.0329464 13.4457864,11.9131696 13.99659,11.9131696 C14.6310989,11.9131696 15.2449829,12.0866518 15.8377061,12.4334821 C16.4302954,12.7804464 16.984715,13.3423661 17.5010543,14.1186161 C17.6194025,14.2920982 17.6945364,14.4676339 17.7258311,14.6450893 C17.7571257,14.8228571 17.77284,14.99 17.77284,15.1469643 C17.77284,15.5185714 17.6838668,15.8121429 17.5060989,16.0267857 C17.3283311,16.2417411 17.1173489,16.3489732 16.8731525,16.3489732 C16.6499382,16.3489732 16.4426168,16.23125 16.2506972,15.9958036 C16.0587775,15.7603571 15.8443132,15.4238839 15.6072597,14.9860268 C15.3840454,14.5895089 15.1381079,14.3025893 14.8698043,14.1249554 C14.6013222,13.9473214 14.3101168,13.8585268 13.9961882,13.8585268 C13.5079739,13.8585268 12.9867239,14.0610714 12.4323043,14.4657143 C11.87784,14.8704911 11.3286436,15.4055804 10.7846704,16.0704464 C10.2405632,16.7354911 9.71931322,17.4951786 9.22060787,18.3502232 C8.72208108,19.2052679 8.2807418,20.0807589 7.89721501,20.9770982 C7.5135543,21.8734375 7.20850965,22.7573661 6.9819918,23.6284375 C6.75529537,24.5 6.6419918,25.2825893 6.6419918,25.9766518 C6.6419918,26.2078125 6.65770608,26.4454911 6.68900072,26.6888393 C6.72047394,26.9325446 6.77953644,27.1537054 6.86694715,27.3517857 C6.95400072,27.5500446 7.07252751,27.7132143 7.22266144,27.8411161 C7.3726168,27.9696429 7.56266144,28.0331696 7.79284001,28.0331696 C8.05083108,28.0331696 8.34377751,27.9465625 8.67154537,27.7729464 C8.99913465,27.5995982 9.33926858,27.3724554 9.69150072,27.0915625 C10.0435543,26.8106696 10.3975275,26.4927679 10.7533757,26.1374107 C11.10909,25.7825 11.4401614,25.423125 11.7470811,25.0595089 C12.0538668,24.6961607 12.3260097,24.3469643 12.5630186,24.0124107 C12.8000722,23.6779911 12.97784,23.3867857 13.0965007,23.1389732 L14.0694025,20.2270536 C14.1879293,19.9133036 14.3429739,19.6904018 14.5348936,19.5580357 C14.7266347,19.4260268 14.9236436,19.3597768 15.1260543,19.3597768 C15.2235989,19.3597768 15.3211436,19.3764732 15.4188668,19.4093304 C15.5159314,19.4420715 15.6050302,19.4948493 15.6803847,19.5642411 C15.7571257,19.6344643 15.8179739,19.7253125 15.8634204,19.836875 C15.9086882,19.9483929 15.9314114,20.0785268 15.9314114,20.2270536 C15.9314114,20.6235714 15.8964561,20.9953571 15.8268579,21.3423214 C15.7580058,21.6859781 15.6689373,22.025273 15.5601168,22.3584375 C15.4499112,22.6944473 15.3295886,23.0270541 15.1993132,23.3558036 C15.0627137,23.7019783 14.9338129,24.0511416 14.8127061,24.4030357 L14.8127061,24.4030357 Z M28.0038668,26.8316518 C27.6967686,27.2447321 27.3394918,27.6472768 26.9316793,28.0396875 C26.5236882,28.4320982 26.1033311,28.7811161 25.6710543,29.0867857 C25.238465,29.3922768 24.8131525,29.6380804 24.3948489,29.8239286 C23.9764114,30.0098214 23.5998936,30.1027232 23.2651168,30.1027232 C22.93034,30.1027232 22.6584204,29.9912054 22.4490007,29.7683036 C22.2399382,29.5454018 22.1352507,29.1654018 22.1352507,28.6282589 C22.1352507,28.2482589 22.1910097,27.8062946 22.3025275,27.3023214 C22.1210989,27.6246875 21.894715,27.9509821 21.6227507,28.28125 C21.3506079,28.6116964 21.04034,28.9132143 20.6916347,29.1858482 C20.3429293,29.4584821 19.9524382,29.6792857 19.5199829,29.8484821 C19.0875275,30.0176786 18.6166793,30.1026786 18.1077954,30.1026786 C17.8777507,30.1026786 17.6561436,30.0736161 17.4434204,30.0157589 C17.2305186,29.9580804 17.0441793,29.8591071 16.8838668,29.7185268 C16.7232418,29.5782589 16.5944025,29.3904464 16.4967239,29.1546875 C16.3990007,28.9195536 16.3502507,28.6240625 16.3502507,28.2688393 C16.3502507,28.2605804 16.3642239,28.1345982 16.3921704,27.8908929 C16.4198043,27.6473661 16.5087775,27.2632143 16.6589114,26.7384821 C16.8087329,26.2141964 17.0408311,25.5347321 17.3545811,24.7003571 C17.6685097,23.8659821 18.1112775,22.8542857 18.6830186,21.6648661 C18.8294918,21.3509375 18.9985543,21.1258482 19.1902954,20.9895089 C19.382215,20.8532143 19.5895364,20.7850446 19.8127507,20.7850446 C19.9104739,20.7850446 20.0115007,20.7996429 20.1161882,20.8282589 C20.2206627,20.8572854 20.3196381,20.9033342 20.4091347,20.9645536 C20.4988785,21.0257586 20.5739256,21.1061119 20.6288668,21.1998214 C20.6848043,21.2948214 20.7125722,21.4041071 20.7125722,21.5282143 C20.7125722,21.6108036 20.7020811,21.6894643 20.6810989,21.7633482 C20.6461436,21.9042857 20.5713222,22.0877679 20.4561436,22.3147768 C20.3236138,22.5759154 20.1894146,22.8362035 20.0535543,23.095625 C19.8889681,23.410355 19.7268056,23.7263465 19.5670811,24.0435714 C19.3936833,24.3877643 19.2348814,24.7391183 19.0910989,25.0966964 C18.9450627,25.4590324 18.8193613,25.829236 18.7145811,26.2055804 C18.6098936,26.5814732 18.5506079,26.9470089 18.5368132,27.3019196 C18.5368132,27.4507589 18.57159,27.5870982 18.6413668,27.7108482 C18.710965,27.8347768 18.825965,27.896875 18.98659,27.896875 C19.4398489,27.896875 19.8721257,27.7480357 20.2837329,27.450625 C20.6952061,27.1533929 21.0750722,26.7837054 21.42409,26.3417411 C21.7726614,25.9000893 22.0883311,25.4249107 22.3706079,24.9168304 C22.6530632,24.40875 22.8886882,23.9442411 23.0767686,23.5229018 C23.2092686,23.2420089 23.3258757,22.9404911 23.427215,22.6183036 C23.5282418,22.2962946 23.6380186,21.9990179 23.7567239,21.72625 C23.8752507,21.4536161 24.0112329,21.2266071 24.1645364,21.0448661 C24.31784,20.863125 24.5097597,20.7722321 24.7399382,20.7722321 C24.990965,20.7722321 25.1895364,20.8674107 25.3361882,21.0570982 C25.4826614,21.2472768 25.5557418,21.4742857 25.5557418,21.7386607 C25.5557418,21.8875 25.5088668,22.0918304 25.4146704,22.351875 C25.3202954,22.6122768 25.2017686,22.9096429 25.0588222,23.2440625 C24.9056799,23.6021581 24.7505734,23.9594105 24.5935097,24.3158036 C24.4256293,24.6967322 24.2703809,25.0831037 24.1280186,25.4742857 C23.9848936,25.8668304 23.8665007,26.2509821 23.7723043,26.626875 C23.6781079,27.0025893 23.6310543,27.3516518 23.6310543,27.6736607 C23.6310543,27.9712054 23.7843579,28.1197768 24.0911436,28.1197768 C24.307215,28.1197768 24.5758311,28.0454464 24.8964561,27.8970536 C25.2175275,27.7482143 25.5538668,27.5395982 25.9060543,27.27125 C26.2581079,27.0029018 26.61034,26.6867857 26.9625275,26.3234375 C27.3125032,25.9627277 27.6260865,25.5684121 27.8987329,25.1462054 L28.0038668,26.8316518 L28.0038668,26.8316518 Z M28.3282864,26.2117857 C28.2515454,26.4019643 28.1765454,26.6229464 28.1033311,26.8749107 C28.0299382,27.126875 27.9935543,27.3518304 27.9935543,27.5500893 C27.9935543,27.6738393 28.0145364,27.7729911 28.0563222,27.8475 C28.0982418,27.9218304 28.1785097,27.9590179 28.2971704,27.9590179 C28.4435097,27.9590179 28.6265007,27.9075446 28.8462329,27.8041071 C29.0657864,27.7008482 29.30284,27.564375 29.5576614,27.3951786 C29.8123489,27.2261607 30.0773043,27.0318304 30.3526168,26.8127679 C30.6310544,26.5913678 30.904849,26.3641905 31.1738222,26.1313839 C31.4390316,25.90203 31.6989074,25.6665803 31.9532418,25.4252232 C32.2007418,25.1895982 32.422215,24.9727679 32.6176168,24.7746429 C32.6724073,24.717297 32.7407601,24.6746763 32.8163668,24.6507143 C32.8927954,24.6259375 32.9591793,24.6135268 33.0151168,24.6135268 C33.1544472,24.6135268 33.2698043,24.6713393 33.36034,24.7871875 C33.4507418,24.9028571 33.4961882,25.0553571 33.4961882,25.2456696 C33.4961882,25.4190179 33.4472597,25.613125 33.3498489,25.8279018 C33.2521257,26.0428571 33.0813668,26.2535268 32.8370364,26.4597321 C32.3906079,26.9473214 31.9410097,27.4097768 31.4876168,27.8475893 C31.0342239,28.2854464 30.58284,28.6714732 30.1331079,29.0058929 C29.6831972,29.340625 29.2367686,29.606875 28.7940007,29.8053125 C28.3510543,30.0034375 27.9205632,30.1025446 27.5019025,30.1025446 C27.2159204,30.1025446 26.9769918,30.0570982 26.7854293,29.9663839 C26.5933757,29.8753571 26.4402061,29.7514286 26.3252061,29.5947768 C26.2100275,29.4376786 26.1280632,29.2519196 26.0792686,29.0370089 C26.03034,28.8222321 26.0061882,28.5953571 26.0061882,28.355625 C26.0061882,27.9508482 26.0567239,27.5358482 26.1577507,27.1100893 C26.2587775,26.6849554 26.3790454,26.2944643 26.5185543,25.939375 C26.7617595,25.2974831 27.0093845,24.6572744 27.2614114,24.0187946 C27.4911833,23.4362174 27.7213768,22.8538065 27.9519918,22.2715625 L31.1214114,14.2796875 C31.2469025,13.9575 31.415965,13.7303125 31.6288222,13.598125 C31.8415454,13.4661161 32.0558757,13.3998661 32.2722597,13.3998661 C32.4881525,13.3998661 32.6854739,13.4700893 32.8634204,13.6105357 C33.0410543,13.7511161 33.1301614,13.9781696 33.1301614,14.2920982 C33.1301614,14.4408036 33.1002954,14.5977679 33.0410543,14.7628125 C32.9818132,14.9283482 32.9068132,15.1056696 32.8162775,15.2956696 C32.6418579,15.6839286 32.4345364,16.1589732 32.1938222,16.7204018 C31.9327755,17.3304374 31.6746624,17.9417243 31.4194918,18.5542411 C31.1336676,19.2405095 30.8512979,19.9282117 30.5723936,20.6173214 C30.2902529,21.3134257 30.007738,22.0093782 29.7248489,22.7051786 C29.4641227,23.3463295 29.2061145,23.9885822 28.9508311,24.6319196 C28.7420084,25.1580254 28.5344929,25.684649 28.3282864,26.2117857 L28.3282864,26.2117857 Z M43.1515007,23.9691964 C43.2492239,23.903125 43.3400722,23.8495536 43.4236436,23.8079464 C43.507215,23.7669643 43.5874382,23.7459821 43.6643132,23.7459821 C43.8174829,23.7459821 43.9326614,23.8142857 44.0095364,23.9504464 C44.0860989,24.0867411 44.1245364,24.2540625 44.1245364,24.4523214 C44.1245364,24.6674107 44.0776614,24.8858929 43.9832864,25.1090625 C43.8892239,25.3319643 43.7480186,25.5178125 43.5595811,25.6665179 C42.8131972,26.3274107 42.1472597,26.9303125 41.5618132,27.4757143 C40.9759204,28.0208036 40.4230632,28.4897768 39.9035543,28.8821875 C39.3840454,29.2745982 38.8767686,29.5781696 38.38159,29.7928125 C37.8864114,30.0074554 37.3564114,30.1148214 36.7913222,30.1148214 C36.2613222,30.1148214 35.8516347,29.9990179 35.5623043,29.7678571 C35.27284,29.5366964 35.1281079,29.2186607 35.1281079,28.8137054 L35.1281079,28.7207589 C35.1281079,28.6920089 35.1314561,28.656875 35.1385989,28.6154464 C35.1662329,28.3677679 35.2745811,28.0825893 35.46284,27.7605804 C35.6512775,27.4383929 35.8777954,27.1038393 36.1427954,26.7570089 C36.4077954,26.4101786 36.6901168,26.0589286 36.9902061,25.7037054 C37.2718078,25.3706909 37.5490634,25.0340255 37.8219025,24.6937946 C38.0764114,24.3760714 38.2873936,24.0848661 38.4545364,23.8203571 C38.6221257,23.5561607 38.7056972,23.3415179 38.7056972,23.1761607 C38.7056972,23.0770089 38.6706079,22.9987054 38.6011436,22.9407143 C38.5315454,22.8830357 38.4162329,22.8541518 38.2559204,22.8541518 C37.9767686,22.8541518 37.6894025,22.9262946 37.3929293,23.0710268 C37.0963222,23.2152679 36.8033757,23.4095536 36.51409,23.653125 C36.2246257,23.8970089 35.9419918,24.1758036 35.6666793,24.4895536 C35.392145,24.8024823 35.1337585,25.1292167 34.8925275,25.4684821 C34.6518579,25.8073661 34.4324382,26.1478125 34.2335543,26.4908036 C34.0348043,26.8334821 33.8656079,27.1494643 33.7262775,27.4386161 C33.6672086,27.5667807 33.607893,27.6948316 33.5483311,27.8227679 C33.4627029,28.007779 33.3790819,28.1937125 33.2974829,28.3805357 C33.2035574,28.5940637 33.1076007,28.8066924 33.0096257,29.0183929 C32.9146272,29.2237316 32.8222684,29.4302814 32.7325722,29.6379911 C32.6488668,29.8321429 32.5736882,30.0053125 32.5076168,30.1584375 C32.4412329,30.3111161 32.3940454,30.4164286 32.3663668,30.4742857 C32.3312775,30.5486161 32.2737329,30.6889286 32.1936882,30.8954464 C32.1002078,31.1366899 32.0077516,31.378329 31.9163222,31.6203571 C31.8119472,31.8969643 31.7018579,32.1881696 31.5869918,32.4937946 C31.4783429,32.7827187 31.3702623,33.0718562 31.2627507,33.3612054 C31.1615454,33.6336607 31.0725722,33.8732143 30.9960097,34.0797768 C30.9192686,34.2861607 30.87034,34.4267411 30.8493579,34.5009375 C30.7823194,34.7090428 30.7001816,34.9119777 30.6035989,35.108125 C30.5094025,35.2979911 30.4013668,35.4652679 30.2793579,35.61 C30.1573489,35.7542411 30.0177061,35.8700893 29.8609204,35.9569643 C29.7037775,36.0437054 29.5277507,36.0869196 29.3326614,36.0869196 C29.0815007,36.0869196 28.8741793,36.026875 28.7100722,35.9072321 C28.5464561,35.7874554 28.4643132,35.5582143 28.4643132,35.2195089 C28.4643132,35.0542857 28.4851168,34.8850893 28.5270811,34.7117857 C28.569362,34.5374081 28.6217724,34.3656435 28.6840454,34.1973661 C28.7456715,34.0311411 28.8101752,33.8659973 28.8775275,33.7020089 C28.9411827,33.5481074 29.0022035,33.3931294 29.0605632,33.2371429 C29.4392205,32.4067575 29.8227837,31.578618 30.2112329,30.7527679 C30.5960834,29.9354439 30.9709328,29.113448 31.3356972,28.2869643 C31.6948936,27.4733929 32.0278847,26.6741518 32.3349829,25.8893304 C32.6417686,25.1046875 32.8962775,24.3529018 33.0985097,23.6343304 C33.1542686,23.4854911 33.2310097,23.2749554 33.3286882,23.0021875 C33.4267969,22.7283478 33.5385133,22.4595759 33.6634204,22.196875 C33.7889114,21.9326786 33.9301614,21.7034375 34.0869472,21.5094643 C34.2439114,21.3153125 34.4129293,21.2180804 34.5942239,21.2180804 C34.8733757,21.2180804 35.0754293,21.2819643 35.200965,21.4101339 C35.3266347,21.5383482 35.3894025,21.7259821 35.3894025,21.9739732 C35.3894025,22.0235268 35.3823936,22.1021875 35.3685989,22.2092411 C35.3535103,22.323233 35.336081,22.4369028 35.3163222,22.5501786 C35.2964542,22.6643767 35.2737239,22.7780583 35.2481525,22.8911161 C35.2236882,22.9985268 35.200965,23.0768304 35.1799829,23.12625 C35.4379739,22.8453571 35.7169472,22.5666964 36.0170811,22.2899554 C36.3168579,22.0133482 36.6273043,21.763125 36.9481972,21.5402679 C37.2687775,21.3173661 37.5966793,21.135625 37.9314561,20.9948661 C38.2661882,20.8545982 38.6009204,20.784375 38.9356525,20.784375 C39.1655186,20.784375 39.3941347,20.8174107 39.6206972,20.8835268 C39.8472597,20.9495982 40.0496257,21.0466964 40.2274382,21.1745536 C40.4053847,21.3029018 40.5499382,21.4638393 40.6614561,21.6578125 C40.77284,21.8520982 40.8287329,22.0772321 40.8287329,22.3331696 C40.8287329,22.6720536 40.7434204,23.0333036 40.5726168,23.4174554 C40.4016793,23.8014286 40.187215,24.1876339 39.9293579,24.5757589 C39.6688969,24.9670704 39.3895332,25.345465 39.0922597,25.7095982 C38.7921704,26.0772321 38.5117686,26.4117857 38.2501168,26.7131696 C38.0288566,26.9678322 37.8091946,27.2238789 37.5911436,27.4812946 C37.4133757,27.6920982 37.3207418,27.8345982 37.3139114,27.9087946 C37.3139114,28.0080804 37.3453847,28.0884821 37.4081079,28.1504464 C37.4708757,28.2124107 37.5755632,28.2433929 37.7220364,28.2433929 C37.8405632,28.2433929 38.0149829,28.1771429 38.2452061,28.0449554 C38.4750722,27.9129464 38.7977507,27.6837054 39.2127061,27.3575446 C39.6273489,27.0312054 40.1543132,26.5933929 40.7923489,26.0438393 C41.4307864,25.4955804 42.2170364,24.8035714 43.1515007,23.9691964 L43.1515007,23.9691964 Z"></path>
        </g>
    </g>
</svg>