<svg xmlns="http://www.w3.org/2000/svg" viewBox="0 0 48 48"><path fill="#FF4A7A" d="M18 41a3.98 3.98 0 0 1-3.18-1.58c-.76-1-1-2.3-.68-3.5l-.02-.02.13-.32 9.81-25.73c.15-.39.08-1.3.01-1.8a.74.74 0 0 1 .01-.34l.01-.03v-.03l.02-.03c.15-.41.63-.62 1.42-.62.94 0 2.24.3 3.58.81 1.12.44 2.13.98 2.85 1.53.84.63 1.18 1.2.99 1.7l-.04.06-.02.02c-.07.09-.13.17-.21.23a5.35 5.35 0 0 0-1.18 1.34l-9.91 26.1h-.02a4.03 4.03 0 0 1-3.57 2.2h-.01V41zm-3.08-5.27l-.03.07a3.36 3.36 0 0 0 1.92 4.28 3.28 3.28 0 0 0 4.24-1.9l.04-.1 9.76-25.62a6.22 6.22 0 0 1 1.38-1.62l.02-.02c.01-.02.03-.02.03-.04 0-.08-.09-.38-.78-.91a11.24 11.24 0 0 0-2.68-1.43 10.45 10.45 0 0 0-3.32-.76c-.55 0-.74.11-.76.18v.05c.02.15.2 1.47-.05 2.15l-9.77 25.67zm12.56-16.3s-1.35 1.57-2.59 2.14c-1.23.56-2.14.42-3.25 1.07a5.22 5.22 0 0 0-1.67 1.56l-4.5 11.85a2.74 2.74 0 0 0 1.57 3.43 2.63 2.63 0 0 0 3.38-1.5l7.06-18.55zm-6.92 14.15c.15-.06.32 0 .37.15.06.14 0 .31-.14.37-.15.06-.32 0-.38-.15a.29.29 0 0 1 .15-.37zm-1.42-2.56a.41.41 0 0 1-.56-.22.42.42 0 0 1 .22-.56.41.41 0 0 1 .56.22c.1.21 0 .44-.22.55v.01zm.4-1.55c-.18-.4 0-.88.4-1.07a.8.8 0 0 1 1.05.4c.17.41 0 .89-.4 1.07-.4.18-.88 0-1.07-.4h.02zm3.4-3.2c.22-.1.47 0 .56.22a.42.42 0 0 1-.21.56.41.41 0 0 1-.56-.22.42.42 0 0 1 .21-.56zm-1.81-1.95c.15-.06.32 0 .37.15.06.15 0 .32-.15.37-.14.06-.31 0-.37-.15a.3.3 0 0 1 .15-.37zm4.73-15.7c.14-.37 1.4-.23 2.8.31 1.4.55 2.42 1.3 2.28 1.66-.14.38-1.4.23-2.8-.3-1.4-.56-2.43-1.3-2.29-1.68z"/></svg>