<svg xmlns="http://www.w3.org/2000/svg" viewBox="0 0 48 48"><path fill="#05BFF5" d="M12.36 14.55v11.61c0 1.4.16 1.6 1.54 2l-.33 1.95c-.74-.17-1.45-.24-2.1-.5-1.23-.48-1.42-1.6-1.42-2.74-.02-3.28-.01-6.56-.01-9.84v-.65c-.57.04-1.08.04-1.58.13-.58.11-.9.58-.92 1.27-.03.97-.01 1.93-.03 2.89 0 .44-.03.88-.08 1.32-.1.82-.48 1.5-1.17 1.94l.01.12c1.04.73 1.22 1.82 1.24 2.97v2.75c.01 1.38.37 1.75 1.76 1.84l.22.03v1.8a5.97 5.97 0 0 1-2.76-.52c-.96-.52-1.28-1.4-1.33-2.41-.05-1.04-.03-2.08-.04-3.12v-.57c-.07-1.2-.54-1.74-1.73-1.94l-.03-.18v-1.5l.09-.07c1.25-.3 1.66-.81 1.67-2.12v-2.5c.01-.57.06-1.14.15-1.7.22-1.22 1.11-1.97 2.54-2.16.42-.05.85-.09 1.27-.1h3.04zm4.02 10.88c-.14 1.2.8 2.32 2.1 2.56 1.22.23 2.4.02 3.63-.36.1.57.2 1.12.27 1.67.02.09-.13.25-.23.28-1.8.56-3.62.75-5.42.06a3.95 3.95 0 0 1-2.35-2.34 6.56 6.56 0 0 1 .12-5.28 4.67 4.67 0 0 1 6.26-2.18c1.32.61 1.96 1.76 2.19 3.12.13.79.12 1.6.17 2.46H16.4zm4.37-1.71c.02-1.48-.81-2.4-2.13-2.4a2.3 2.3 0 0 0-2.24 2.4h4.37zm16.96 9.74v-1.83l.53-.04c.98-.08 1.42-.51 1.45-1.5.02-.95 0-1.9.01-2.84.01-.46.04-.92.1-1.37.12-.78.52-1.4 1.25-1.88-1.3-.82-1.33-2.08-1.35-3.34v-2.6c-.03-1.18-.46-1.61-1.65-1.66l-.32-.03v-1.81c1.03.02 2.04.05 2.94.63.84.54 1.1 1.4 1.14 2.33.05 1.12.03 2.24.05 3.36 0 .33.02.66.1.98.22.81.78 1.23 1.63 1.26v1.77c-.81.04-1.4.42-1.62 1.24-.07.32-.11.65-.11.98-.02 1.1 0 2.2-.04 3.3-.06 1.76-.98 2.73-2.73 2.94-.45.05-.9.07-1.38.1v.01zm.43-13.59l-.42 1.83a6.15 6.15 0 0 0-2.95-.38c-.63.1-1 .38-1.08.83-.09.48.15.9.73 1.2.49.23 1.01.42 1.52.63l.9.4c1.43.72 1.92 1.62 1.76 3.23-.12 1.12-.93 1.95-2.35 2.26a8.73 8.73 0 0 1-5.06-.37l.37-1.84c.73.16 1.42.38 2.13.46.58.07 1.19.02 1.78-.04.4-.04.72-.24.82-.68.1-.45-.03-.84-.41-1.07-.47-.29-.98-.5-1.48-.74-.6-.28-1.21-.52-1.79-.85-1.68-.95-1.66-3.9.2-4.79a6.23 6.23 0 0 1 1.8-.51 8.1 8.1 0 0 1 3.53.43zm-7.64-.08l-.44 1.92a6.08 6.08 0 0 0-2.92-.4c-.66.11-1.04.4-1.12.86-.08.47.16.89.76 1.18.53.25 1.08.45 1.62.67l.77.35c1.47.74 1.99 1.73 1.75 3.35-.16 1.13-1.14 1.99-2.58 2.21-1.46.23-2.91.2-4.34-.26-.35-.11-.5-.25-.4-.63.13-.45.21-.92.31-1.38.72.16 1.42.38 2.12.46.59.07 1.2.02 1.79-.04.42-.04.74-.28.83-.73.08-.44-.07-.81-.43-1.02-.54-.32-1.13-.56-1.7-.83-.52-.25-1.06-.47-1.56-.76-1.69-.96-1.66-3.89.24-4.83a5 5 0 0 1 2.66-.5c.87.06 1.73.24 2.64.38z"/></svg>