<svg xmlns="http://www.w3.org/2000/svg" viewBox="0 0 48 48"><path fill="#1CEBA7" d="M24.39 5.47c-.5 0-1 .13-1.42.36L9.4 13.67a2.88 2.88 0 0 0-1.42 2.48V31.8c0 1.02.55 1.97 1.42 2.48l3.56 2.04c1.73.84 2.31.86 3.12.86 2.55 0 4.02-1.55 4.02-4.25V17.48a.4.4 0 0 0-.4-.4H18a.4.4 0 0 0-.41.4v15.44c0 1.2-1.24 2.39-3.23 1.38l-3.73-2.13a.47.47 0 0 1-.2-.38V16.15c0-.16.07-.3.2-.38l13.56-7.82a.4.4 0 0 1 .4 0l13.56 7.82c.13.07.2.22.2.38V31.8c0 .14-.07.3-.2.38L24.59 40c-.11.07-.3.07-.42 0l-3.43-2.08c-.14-.05-.29-.07-.38-.01-.97.54-1.15.65-2.04.92-.22.08-.57.2.13.59l4.52 2.68c.43.25.9.38 1.42.38.5 0 .98-.13 1.42-.38l13.56-7.82a2.88 2.88 0 0 0 1.42-2.48V16.15c0-1.02-.55-1.97-1.42-2.48L25.8 5.83a2.9 2.9 0 0 0-1.42-.36zm3.64 11.2c-3.86 0-6.18 1.63-6.18 4.37 0 2.93 2.3 3.79 6.02 4.15 4.43.44 4.77 1.1 4.77 1.97 0 1.51-1.22 2.15-4.06 2.15-3.61 0-4.38-.9-4.65-2.68a.41.41 0 0 0-.4-.33h-1.75c-.22 0-.38.17-.38.4 0 2.26 1.24 5 7.18 5 4.28 0 6.74-1.7 6.74-4.65 0-2.93-1.97-3.7-6.14-4.26-4.21-.55-4.63-.84-4.63-1.83 0-.82.37-1.91 3.48-1.91 2.74 0 3.81.6 4.23 2.48.04.18.2.3.38.3h1.77c.1 0 .2-.03.28-.12.07-.07.12-.18.09-.3-.26-3.24-2.41-4.73-6.75-4.73z"/></svg>