<svg xmlns="http://www.w3.org/2000/svg" viewBox="0 0 48 48"><path fill="#05BFF5" d="M37.17 18.3c-.67-.25-1.4-.5-2.16-.71.2-.78.35-1.53.46-2.23.64-3.97-.06-6.77-1.97-7.87a3.74 3.74 0 0 0-1.9-.48c-1.67 0-3.71.94-5.9 2.71-.55.45-1.12.96-1.7 1.52a25.38 25.38 0 0 0-1.69-1.52c-2.18-1.77-4.23-2.71-5.9-2.71-.7 0-1.34.16-1.9.48-1.9 1.1-2.6 3.9-1.97 7.87.11.7.27 1.45.47 2.23-.77.22-1.5.46-2.17.71-3.76 1.44-5.83 3.44-5.83 5.64 0 2.2 2.07 4.2 5.83 5.64.67.25 1.4.5 2.17.71-.2.78-.36 1.53-.47 2.23-.63 3.97.06 6.77 1.97 7.87.56.32 1.2.48 1.9.48 1.67 0 3.71-.94 5.9-2.71.55-.45 1.12-.96 1.7-1.52.57.56 1.14 1.07 1.7 1.52 2.18 1.77 4.22 2.71 5.9 2.71.7 0 1.34-.16 1.9-.48 1.9-1.1 2.6-3.9 1.96-7.87-.11-.7-.27-1.45-.46-2.23.77-.22 1.5-.46 2.16-.7 3.76-1.45 5.83-3.45 5.83-5.65s-2.07-4.2-5.83-5.64zM31.6 8.54c.43 0 .82.1 1.14.28 1.58.9 1.88 4.12.8 8.4-1.61-.37-3.35-.65-5.18-.81a39.34 39.34 0 0 0-3.3-4.09c2.47-2.4 4.85-3.78 6.54-3.78zM17.3 27.8c.4.68.8 1.36 1.24 2.02a36.22 36.22 0 0 1-3.66-.62c.35-1.13.78-2.3 1.29-3.49.36.7.74 1.4 1.13 2.09zm-2.42-9.14c1.15-.26 2.38-.47 3.66-.62a48.88 48.88 0 0 0-2.37 4.1c-.51-1.18-.94-2.35-1.3-3.48zm2.1 5.27a47.97 47.97 0 0 1 3.5-6.08 48.08 48.08 0 0 1 7.02 0 47.93 47.93 0 0 1 3.51 6.08 47.94 47.94 0 0 1-3.5 6.08 48.04 48.04 0 0 1-7.02 0 48.03 48.03 0 0 1-3.51-6.08zm13.71 3.87c.4-.69.77-1.38 1.14-2.09.5 1.2.94 2.36 1.29 3.49-1.15.26-2.38.47-3.66.62.42-.66.84-1.34 1.23-2.02zm0-7.74c-.4-.68-.8-1.36-1.23-2.02 1.28.15 2.5.36 3.66.62-.35 1.13-.79 2.3-1.3 3.49-.36-.7-.73-1.4-1.13-2.09zm-4.32-3.8a48.86 48.86 0 0 0-4.74 0c.77-1.04 1.57-2 2.37-2.86.8.86 1.6 1.82 2.37 2.86zm-11.1-7.45c.31-.19.7-.28 1.14-.28 1.68 0 4.06 1.38 6.53 3.78a39.33 39.33 0 0 0-3.3 4.09c-1.82.16-3.57.44-5.18.8-1.08-4.27-.78-7.48.8-8.4zM6.53 23.94c0-1.83 2.63-3.7 6.88-4.9a39.29 39.29 0 0 0 1.89 4.9 39.34 39.34 0 0 0-1.9 4.9c-4.24-1.2-6.87-3.07-6.87-4.9zm9.88 15.4c-.44 0-.83-.1-1.15-.28-1.58-.9-1.88-4.12-.8-8.4 1.61.37 3.36.65 5.19.81a39.3 39.3 0 0 0 3.29 4.09c-2.47 2.4-4.85 3.78-6.53 3.78zm5.22-7.73a48.84 48.84 0 0 0 4.74 0A36.2 36.2 0 0 1 24 34.47c-.8-.86-1.6-1.82-2.37-2.86zm11.1 7.45c-.32.19-.7.28-1.14.28-1.69 0-4.07-1.38-6.54-3.78a39.3 39.3 0 0 0 3.3-4.09c1.83-.16 3.57-.44 5.18-.8 1.08 4.27.78 7.48-.8 8.4zm1.86-10.22a39.27 39.27 0 0 0-1.9-4.9c.78-1.67 1.41-3.32 1.9-4.9 4.24 1.2 6.87 3.07 6.87 4.9 0 1.83-2.63 3.7-6.87 4.9zm-14.06-4.9a3.4 3.4 0 1 1 6.8 0 3.4 3.4 0 0 1-6.8 0z"/></svg>