<svg xmlns="http://www.w3.org/2000/svg" viewBox="0 0 48 48"><path fill="#FF4A7A" d="M24.5 7a17.5 17.5 0 1 1 0 35 17.5 17.5 0 0 1 0-35zm-3.48 23.33c.26.94.23 1.82-.03 2.61l-.1.27a4.9 4.9 0 0 1-.92 1.43c-1.02 1.11-2.44 1.53-3.05 1.18-.66-.38-.33-1.95.85-3.2 1.27-1.34 3.1-2.2 3.1-2.2l.15-.09zm14.46-15.84c-.8-3.1-5.95-4.13-10.83-2.4-2.9 1.04-6.04 2.65-8.3 4.77-2.69 2.5-3.12 4.7-2.94 5.61.62 3.22 5.04 5.33 6.86 6.9-.54.27-4.46 2.24-5.38 4.27-.98 2.15.16 3.68.9 3.87 2.3.64 4.66-.52 5.93-2.4a6.06 6.06 0 0 0 .59-5.36c.72-.2 1.58-.29 2.67-.16 3.06.35 3.67 2.28 3.54 3.07a2.1 2.1 0 0 1-.98 1.38c-.22.13-.29.17-.26.26.02.13.13.13.3.1.24-.04 1.6-.65 1.66-2.14.07-1.88-1.72-3.98-4.92-3.93a7.87 7.87 0 0 0-2.73.37.51.51 0 0 0-.15-.16c-1.97-2.12-5.63-3.6-5.47-6.43.04-1.02.41-3.74 7-7.02 5.4-2.69 9.7-1.95 10.45-.3 1.07 2.34-2.3 6.69-7.92 7.32-2.14.24-3.26-.59-3.54-.9-.3-.32-.35-.34-.46-.28-.17.09-.06.37 0 .55.18.44.85 1.2 2.04 1.6 1.02.32 3.54.52 6.56-.66 3.39-1.31 6.04-4.97 5.27-8.03l.1.1z"/></svg>