<svg xmlns="http://www.w3.org/2000/svg" viewBox="0 0 48 48"><g fill="none"><path fill="#B4EBFC" d="M39.95 33.51L24.68 42v-6.6l9.52-5.14 5.75 3.26zm1.05-.93V14.86l-5.59 3.17v11.4L41 32.57zm-32.93.93L23.34 42v-6.6l-9.52-5.14-5.75 3.26zm-1.05-.93V14.86l5.59 3.17v11.4l-5.59 3.15zm.66-18.87L23.34 5v6.39l-10.11 5.46-5.55-3.15zm32.66 0L24.68 5v6.39l10.12 5.45 5.54-3.14z"/><path fill="#05BFF5" d="M23.34 33.89l-9.39-5.07V18.78l9.39 5.32v9.79zm1.34 0l9.4-5.07V18.78l-9.4 5.32v9.79zm-10.1-16.27l9.43-5.08 9.43 5.08L24 22.96l-9.42-5.34z"/></g></svg>