<svg xmlns="http://www.w3.org/2000/svg" viewBox="0 0 48 48"><path fill="#05BFF5" d="M38.62 34.19c-1.75.42-2.63.8-4.8 2.21a28.97 28.97 0 0 1-7.09 3.2s-.3.47-1.2.67c-1.52.37-7.3.7-7.82.7-1.4.01-2.27-.36-2.51-.94-.74-1.75 1.05-2.51 1.05-2.51s-.4-.25-.63-.46c-.2-.21-.42-.63-.49-.47-.27.66-.41 2.3-1.15 3.03-1 1.01-2.9.67-4.03.08-1.24-.65.08-2.2.08-2.2s-.66.4-1.2-.41a5.88 5.88 0 0 1-.81-3.58c.15-1.8 2.14-3.53 2.14-3.53s-.35-2.64.8-5.34C12 22.18 14.8 20.2 14.8 20.2s-2.35-2.6-1.47-4.95c.57-1.53.8-1.52.98-1.59.66-.25 1.3-.52 1.76-1.04 2.36-2.53 5.35-2.05 5.35-2.05s1.4-4.3 2.72-3.46c.4.26 1.86 3.5 1.86 3.5s1.55-.9 1.73-.57c.94 1.83 1.05 5.32.63 7.44-.7 3.5-2.45 5.39-3.15 6.57-.17.27 1.88 1.13 3.17 4.71 1.2 3.27.13 6.02.32 6.33l.04.07s1.37.11 4.12-1.58c1.46-.91 3.2-1.93 5.18-1.95 1.92-.03 2.02 2.22.58 2.56z"/></svg>