<svg xmlns="http://www.w3.org/2000/svg" viewBox="0 0 194 35"><path fill="#222222" fill-rule="evenodd" d="M10.46 34.12v-9.79H.34V8.71h10.12V2.16h6.08V8.7h10.08v15.62H16.54v9.8h-6.08zM6.1 13.82v5.44h4.36v-5.44H6.1zm14.76 0h-4.32v5.44h4.32v-5.44zm12.55 20.7V2.88h26.56v31.64H33.41zm21.63-27H38.37V29.8h16.67V7.52zm-.72 16.67v4.07H39.2v-4.07h4.86v-4.03h-3.92v-4.1h3.92v-2.92h-4.79v-4.1h14.48v4.1h-4.86v2.91h4.17v4.1H48.9v4.04h5.43zm-.83-.54h-3.88v-2.81h3.88v2.8zM67.66 10h8.96v1.3H69v3.64h7.63v1.3h-9.1v4.06h9.1v1.51H66.9v4.29h6.66c-1.65 1.69-4.96 3.34-7.3 4.32l3.34 4.1c3.24-1.26 7.96-4.54 10.34-7.1 2.3 2.74 6.58 5.59 10.44 7.1l3.3-4.1c-2.12-.98-5.5-2.34-7.26-4.32h6.66V21.8H83.2V20.3h9.15v-4.07H83.2v-1.3h7.53V11.3H83.2V10h8.9V5.94h-4.33l1.52-3.71h-5.8l-1.44 3.7h-4.32l-1.44-3.7h-5.8l1.48 3.7h-4.32V10zm55.35 21.14l-6.84-11.06v14.04h-6.01V19.94l-7.02 11.2-4.54-4 9.22-13.03h-7.2V9h9.54V2.16h6.01V9h9.58v5.1h-7.5l9.3 13.04-4.54 4zm-5.36-23.19V3.67h5.65v4.28h-5.65zm17-4.18zm0 0l4.29-2.51L142 6.5l-.97.58h3.53a67.46 67.46 0 0 0-1.98-4.32c-.11 0 4.78-1.98 4.78-1.98l2.27 5.43-2.01.87h3.3l2.78-5.9s5.08 2.3 5.04 2.26c-.04 0-.9 1.98-1.62 3.64h3.56v7.88h-6l-5.3 5.87v.4h10.37v4.64h-10.37v8.28h-7.67l1.51-1.76v-6.52h-10.3v-4.64h10.3v-1.52l2.49-1.83h-7.6v-2.92h-5.76V7.1h4.25c-.87-1.47-1.88-3.28-1.94-3.32zm3.82 7.46v2.52h16.1v-2.52h-16.1zm27.63 22.9V2.87h11.09l-2.3 12.6a17.04 17.04 0 0 1 2.2 8.2c0 4.32-1.95 7.56-4.72 7.56h-1.62v2.88h-4.65zm11.27-11.35h2.02c-.26 4.14-.65 6.2-1.66 10.88l4.82.57c1.2-5.43 1.52-7.7 1.77-11.45h1.51v11.16h8.06v-5.58l-1.33 1.08h-1.76v-6.66h1.87v-4.42h-15.3v4.42zm-.29-11.16V4.4h5.11V2.16h5.76v2.23h5.44v7.27h-4.57v-3.2h-7.24v3.16h-4.5zm2.13 5.19h11.88v-4.14H179.2v4.14zm-6.74 6.01a13 13 0 0 0-1.72-6.05v9.11h.25c.86 0 1.47-1.19 1.47-3.06zm-.43-15.05h-1.3v7.17l1.3-7.17z"/></svg>