<svg xmlns="http://www.w3.org/2000/svg" viewBox="0 0 34 37"><g fill="none"><path fill="#B4EBFC" d="M32.95 28.51L17.68 37v-6.6l9.52-5.14 5.75 3.26zm1.05-.93V9.86l-5.59 3.17v11.4L34 27.57zm-32.93.93L16.34 37v-6.6l-9.52-5.14-5.75 3.26zm-1.05-.93V9.86l5.59 3.17v11.4L.02 27.57zM.68 8.71L16.34 0V6.4L6.23 11.86.68 8.7zm32.66 0L17.68 0V6.4l10.12 5.45 5.54-3.14z"/><path fill="#05BFF5" d="M16.34 28.89l-9.39-5.07V13.78l9.39 5.32v9.79zm1.34 0l9.4-5.07V13.78l-9.4 5.32v9.79zM7.58 12.62l9.43-5.08 9.43 5.08L17 17.96 7.6 12.62z"/></g></svg>