<svg xmlns="http://www.w3.org/2000/svg" viewBox="0 0 99 33"><path fill="#222222" fill-rule="evenodd" d="M15 25.4l5.98-10.27h1.4L13.74 30.3l4.1 2.34 7.53-13.5c-.36 3.45-1.11 7.56-1.8 10.8l-1.76 2.2h7.09c1.48-8.54 1.48-16.85 1.66-21.68h-8.54l6.63-9.29H12.66V6h5.94l-6 8.71-1.99-4.03h1.66V5.99h-1.98V.84H5.54v5.15H3.09v4.68h2.34L.93 20.89l3.2 3.89 1.4-4.21v11.52h4.76V18.55l.93 2.56 2.74-3.67-1.15-2.3h3.02l-4.82 8.1 4 2.15zm22.77-2.92v-4.32h8.79v-2.27h6.26v2.27h8.79v4.32h-2.92l-.72 4.86h4.46v4.86H36.95v-4.86h4.35l-.79-4.86h-2.74zm1.16-21.35h21.49v14.22h-21.5V1.13zm7.45 21.35l.75 4.86h4.94l.75-4.86h-6.44zm8.42-17.1H44.54v1.44H54.8V5.38zm-10.26 5.68H54.8v-1.4H44.54v1.4zm46.28-5.1v26.16h7.81v-5.97l-1.08 1.15h-1.62V.84H82.14v31.28h4.8V18.8h3.23v-5.58h-3.24V5.95h3.89zM72.78 32.11h4.47v-21.3h.83v12.74l-.62 1.11h4V6.42h-4.18V.37h-4.64v6.05h-4.28v18.25h3.56V10.81h.86v21.31z"/></svg>