<?xml version="1.0" encoding="UTF-8"?>
<svg width="907px" height="1024px" viewBox="0 0 907 1024" version="1.1" xmlns="http://www.w3.org/2000/svg" xmlns:xlink="http://www.w3.org/1999/xlink">
    <!-- Generator: Sketch 46.2 (44496) - http://www.bohemiancoding.com/sketch -->
    <title>webpack</title>
    <desc>Created with Sketch.</desc>
    <defs></defs>
    <g stroke="none" stroke-width="1" fill="none" fill-rule="evenodd">
        <g fill-rule="nonzero">
            <polygon fill="#FFFFFF" points="453.518 0 906.057 255.971 906.057 768.029 453.518 1024 0.979 768.029 0.979 255.971 453.518 0"></polygon>
            <path d="M825.254,750.372 L468.485,952.202 L468.485,795.041 L690.778,672.727 L825.253,750.372 L825.254,750.372 Z M849.694,728.271 L849.694,306.253 L719.195,381.676 L719.195,652.965 L849.694,728.271 Z M80.378,750.372 L437.147,952.202 L437.147,795.041 L214.737,672.727 L80.379,750.372 L80.378,750.372 Z M55.939,728.271 L55.939,306.252 L186.438,381.675 L186.438,652.964 L55.939,728.27 L55.939,728.271 Z M71.257,278.89 L437.147,71.915 L437.147,223.814 L200.821,353.846 L71.257,278.891 L71.257,278.89 Z M834.375,278.89 L468.485,71.915 L468.485,223.814 L704.811,353.729 L834.375,278.891 L834.375,278.89 Z" fill="#8ED6FB"></path>
            <path d="M437.147,759.259 L217.777,638.582 L217.777,399.684 L437.147,526.325 L437.147,759.26 L437.147,759.259 Z M468.486,759.259 L687.856,638.699 L687.856,399.684 L468.486,526.325 L468.486,759.26 L468.486,759.259 Z M232.628,372.087 L452.817,251.059 L673.006,372.087 L452.817,499.195 L232.628,372.087 Z" fill="#1C78C0"></path>
        </g>
    </g>
</svg>