<svg xmlns="http://www.w3.org/2000/svg" viewBox="0 0 56 87"><path fill="#222222" fill-rule="evenodd" d="M3.4 54.74c1.64 8.53 6.58 14.32 14.84 18.82C30 79.98 36.3 81.2 41.72 77.58c4.92-3.28 6.37-16.29 3.83-21.36-2.1-4.2-3.05-10.4-3.05-20.22 0-4.96-3.85-12.34-8.86-17.66-.84-.88-1.54-1.8-2.7-3.49l-.47-.66C27.05 9.28 24.92 7.5 21 7.5c-4.55 0-10.01 6.68-13.8 16.9C10.83 17.38 15.76 14 19 14c5 0 6.2 2.96 10 7 4.64 4.92 9 11.5 9 17 0 10 1 12 3 16s1 15-3 18-9 4-21-2C9.51 66.26 5.14 61.74 3.4 54.74zm-1.53-9.8c.1-1.9.32-3.9.63-6 .92-14.13 4.16-24.32 9.1-30.87C15.4 3.04 20.07.5 24 .5c4.37 0 7.3 2.39 11.11 7.7a138.32 138.32 0 0 1 1.26 1.8 62.48 62.48 0 0 0 2.01 2.68c.77.92 3.73 4.27 4.12 4.73 6.01 6.99 8.65 12.46 8 19.64-.83 9.15-.08 12.64 2.67 17.6a22.08 22.08 0 0 1 2.31 5.21c2.1 7.38-2.15 20.52-8.2 24.56-5.58 3.72-15.32 1.22-28.52-5.98-8.65-4.72-15.32-11.6-17.25-19.32a20.73 20.73 0 0 1-.33-10.2l.26-1.4a105.64 105.64 0 0 0 .43-2.58zm.02 5.88l-.1.76c-.23 2.24-.06 4.3.7 7.3 1.84 7.39 8.32 14.08 16.75 18.68 12.88 7.03 22.34 9.45 27.48 6.02 5.68-3.78 9.8-16.47 7.8-23.44a20.54 20.54 0 0 0-2.14-4.85c-2.94-5.29-3.73-8.98-2.88-18.34.62-6.84-1.9-12.09-7.75-18.89-.4-.45-3.36-3.8-4.13-4.74-.27-.32-.54-.66-.83-1.04a63.37 63.37 0 0 1-1.86-2.6l-.63-.9C30.67 3.72 27.95 1.5 24 1.5c-3.6 0-7.98 2.38-11.6 7.18-3.58 4.74-6.26 11.5-7.77 20.4C8.44 15.71 15.19 6.5 21 6.5c4.35 0 6.7 1.96 10.3 7.12l.45.66a28 28 0 0 0 2.61 3.38C39.53 23.14 43.5 30.74 43.5 36c0 9.68.93 15.75 2.95 19.78 2.74 5.47 1.23 19.04-4.17 22.64-5.83 3.88-12.45 2.6-24.52-3.98C7.97 69.1 2.68 61.94 1.9 50.82zm16.28-.93c0-.27-.13-.57-.38-.9-.26-.31-.53-.47-.8-.47-.42 0-.78.3-1.07.88-.24.5-.65.98-1.24 1.45-.64.52-1.21.77-1.7.77-1.25 0-1.88-.98-1.88-2.94 0-1.17.19-2.33.55-3.49.5-1.56 1.2-2.34 2.1-2.34.4 0 .65.29.76.85.06.2.09.65.09 1.32 0 .83-.05 1.33-.14 1.52-.17.4-.25.61-.25.63 0 .3.17.54.5.74.27.19.56.28.88.28.44 0 .8-.46 1.1-1.38a5.9 5.9 0 0 0 .14-3.6c-.17-.57-.75-1.14-1.74-1.7a5.2 5.2 0 0 0-2.4-.77c-1.18 0-2.23 1.04-3.13 3.13a12.1 12.1 0 0 0-1.12 4.73c0 1.45.4 2.63 1.22 3.55a4.31 4.31 0 0 0 3.4 1.37c.55 0 1.13-.09 1.74-.27.62-.19 1.3-.63 2.08-1.35.86-.77 1.3-1.44 1.3-2zm14.38 3.05v-4.92c0-2.97-.61-5.07-1.82-6.3-.7-.71-1.38-1.07-2.06-1.07-.68 0-1.25.27-1.7.8a6.7 6.7 0 0 0-.94 1.7c-.66-1.39-1.51-2.09-2.56-2.09-.84 0-1.53.44-2.06 1.32.03-.36-.1-.69-.39-.97-.3-.29-.62-.43-.99-.43-.3 0-.6.44-.88 1.32a6.5 6.5 0 0 0-.33 1.76v6a10.51 10.51 0 0 0 .5 2.7c.25.29.6.43 1.02.43.36 0 .66-.12.89-.35.23-.24.34-.55.34-.91 0-.28-.03-.7-.1-1.25-.08-.56-.12-.99-.12-1.28a9.35 9.35 0 0 1 2.42-6.19c.46 0 .69 1.04.69 3.1v5.12c0 .3.16.6.47.91.3.31.62.47.93.47.3 0 .6-.12.91-.35.31-.23.47-.49.47-.78 0-.13-.04-.32-.13-.56a1.97 1.97 0 0 1-.12-.57v-2.53c0-.91.14-1.91.41-3 .37-1.48.85-2.22 1.46-2.22.8 0 1.21 2.44 1.21 7.31 0 .37 0 .87-.03 1.52a68.4 68.4 0 0 0-.02 1.5c.49.26.86.4 1.1.4.33 0 .8-.2 1.43-.59z"/></svg>