<svg xmlns="http://www.w3.org/2000/svg" viewBox="0 0 111 18"><path fill="#222222" fill-rule="evenodd" d="M12.37 6.98c-.4-.55-.9-.96-1.51-1.24a4.55 4.55 0 0 0-3.57-.1c-.5.21-.92.51-1.27.89-.36.38-.63.82-.82 1.33-.2.5-.3 1.05-.3 1.64 0 .6.1 1.15.3 1.65a3.67 3.67 0 0 0 2.12 2.14 4.33 4.33 0 0 0 3.53-.12c.6-.29 1.1-.68 1.52-1.17v4.7c-.66.2-1.24.37-1.76.5s-1.09.2-1.7.2a8.2 8.2 0 0 1-5.66-2.22 7 7 0 0 1-1.84-2.57 8.25 8.25 0 0 1 1.64-8.65 8.18 8.18 0 0 1 9.32-1.68v4.7zM25.09 17h-3.64v-1.14h-.04c-.32.5-.76.88-1.34 1.12a4.91 4.91 0 0 1-5.49-1.27 5.86 5.86 0 0 1-.02-7.68 4.91 4.91 0 0 1 5.46-1.3c.57.22 1.05.56 1.43 1.01v-1h3.64V17zm-5.86-7.44a2.29 2.29 0 0 0-1.72.69c-.2.2-.35.45-.46.73-.1.28-.16.58-.16.9 0 .65.2 1.2.61 1.64.41.44.99.66 1.73.66.75 0 1.33-.22 1.73-.66.41-.44.61-.99.61-1.64 0-.32-.05-.62-.16-.9a2.12 2.12 0 0 0-1.19-1.23 2.43 2.43 0 0 0-.99-.19zm11.1-1.5h.03a3.6 3.6 0 0 1 1.42-1.3 4.4 4.4 0 0 1 1.86-.36c.7 0 1.28.1 1.77.31.49.2.88.5 1.2.87.3.37.52.82.67 1.35.15.53.22 1.1.22 1.73V17h-3.64v-5.82c0-.32-.05-.62-.14-.9a1.5 1.5 0 0 0-.48-.7c-.23-.19-.57-.28-1.02-.28-.37 0-.68.06-.92.19s-.43.3-.58.52c-.15.22-.25.47-.3.76-.07.29-.1.59-.1.91V17h-3.64V6.74h3.64v1.32zM40.88.76a1.97 1.97 0 0 1 1.44.6 2.07 2.07 0 0 1 .6 1.44 1.97 1.97 0 0 1-.6 1.44 2.07 2.07 0 0 1-1.44.6 1.97 1.97 0 0 1-1.44-.6 2.07 2.07 0 0 1-.6-1.44 1.97 1.97 0 0 1 .6-1.44 2.07 2.07 0 0 1 1.44-.6zM42.7 17h-3.64V6.74h3.64V17zm8.34-7.62a4.5 4.5 0 0 0-1.96-.5 1.85 1.85 0 0 0-.73.16.93.93 0 0 0-.29.21.47.47 0 0 0-.12.33c0 .17.07.31.2.42.12.1.27.19.44.25.18.06.36.1.54.14l.46.09c.43.08.82.2 1.18.35.36.15.68.35.94.59.27.24.48.53.63.87.16.34.23.75.23 1.23a3.4 3.4 0 0 1-1.53 2.92 5 5 0 0 1-1.55.68 7.79 7.79 0 0 1-5.9-.96l1.32-2.54a9.24 9.24 0 0 0 2.15.95c.26.06.5.09.73.09.12 0 .25-.01.38-.04.14-.03.26-.07.37-.14.12-.07.21-.15.28-.24.08-.1.11-.21.11-.36 0-.2-.06-.36-.2-.47a1.6 1.6 0 0 0-.52-.28 5.5 5.5 0 0 0-.73-.19 9.98 9.98 0 0 1-1.66-.49 2.31 2.31 0 0 1-1.25-1.25c-.13-.3-.2-.7-.2-1.16a3.26 3.26 0 0 1 1.42-2.77c.43-.3.91-.52 1.45-.66a6.55 6.55 0 0 1 1.65-.21c.6 0 1.17.05 1.73.15.57.1 1.12.27 1.65.51l-1.22 2.32zm4.4-7.46h3.85l3.06 8.06 3.24-8.06h3.9L71.78 17h-3.92l-1.1-8.68h-.04L63.1 17h-1.56l-3.46-8.68h-.04L56.78 17h-3.9l2.56-15.08zM74.34.76a1.97 1.97 0 0 1 1.44.6 2.07 2.07 0 0 1 .6 1.44 1.97 1.97 0 0 1-.6 1.44 2.07 2.07 0 0 1-1.44.6 1.97 1.97 0 0 1-1.44-.6 2.07 2.07 0 0 1-.6-1.44 1.97 1.97 0 0 1 .6-1.44 2.07 2.07 0 0 1 1.44-.6zM76.17 17h-3.64V6.74h3.64V17zm5.2-8.94h.04a3.6 3.6 0 0 1 1.42-1.3 4.4 4.4 0 0 1 1.86-.36c.7 0 1.29.1 1.77.31.5.2.89.5 1.2.87.3.37.53.82.67 1.35.15.53.22 1.1.22 1.73V17h-3.64v-5.82c0-.32-.04-.62-.14-.9a1.5 1.5 0 0 0-.48-.7c-.22-.19-.56-.28-1.02-.28-.37 0-.68.06-.92.19s-.43.3-.58.52c-.14.22-.25.47-.3.76-.07.29-.1.59-.1.91V17h-3.64V6.74h3.64v1.32zm14.17 1.5a2.29 2.29 0 0 0-1.72.69c-.2.2-.35.45-.46.73-.1.28-.16.58-.16.9 0 .65.2 1.2.61 1.64.4.44.98.66 1.73.66s1.32-.22 1.73-.66c.4-.44.61-.99.61-1.64 0-.32-.05-.62-.16-.9a2.12 2.12 0 0 0-1.19-1.23 2.43 2.43 0 0 0-.99-.19zm0-3.16c.83 0 1.61.12 2.36.36.75.24 1.4.6 1.97 1.06a5.11 5.11 0 0 1 1.85 4.06 5.2 5.2 0 0 1-1.85 4.04 5.9 5.9 0 0 1-1.97 1.06 7.67 7.67 0 0 1-4.7 0c-.75-.24-1.4-.6-1.98-1.06a5.09 5.09 0 0 1-1.86-4.04 5.11 5.11 0 0 1 1.85-4.06 5.9 5.9 0 0 1 1.97-1.06 7.67 7.67 0 0 1 2.36-.36zm10.63 2.02h.04c.34-.64.8-1.1 1.38-1.39a4.28 4.28 0 0 1 1.94-.43h.7v3.5a2.2 2.2 0 0 0-.75-.28 4.94 4.94 0 0 0-.8-.06c-.5 0-.92.08-1.24.24-.33.16-.59.38-.77.65-.19.27-.32.6-.4.98a6.5 6.5 0 0 0-.1 1.23V17h-3.64V6.74h3.64v1.68z"/></svg>