<svg xmlns="http://www.w3.org/2000/svg" viewBox="0 0 64 64"><path fill="#FFFFFF" fill-rule="evenodd" d="M12 12h19v19H12V12zm3 3v13h13V15H15zm19-3h3v3h-3v-3zm5 0h3v3h-3v-3zm5 0h3v3h-3v-3zm6 0h3v3h-3v-3zm-16 5.5h3v3h-3v-3zm16 0h3v3h-3v-3zm-16 5h3v3h-3v-3zm16 0h3v3h-3v-3zM34 28h3v3h-3v-3zm5 0h3v3h-3v-3zm5 0h3v3h-3v-3zm6 0h3v3h-3v-3zm-38 6h3v3h-3v-3zm5 0h3v3h-3v-3zm5 0h3v3h-3v-3zm6 0h3v3h-3v-3zm-16 6h3v3h-3v-3zm16 0h3v3h-3v-3zm-16 5h3v3h-3v-3zm16 0h3v3h-3v-3zm-16 5h3v3h-3v-3zm5 0h3v3h-3v-3zm5 0h3v3h-3v-3zm6 0h3v3h-3v-3z"/></svg>